<?xml version="1.0" encoding="utf-8"?>
<!-- Generator: Adobe Illustrator 27.3.1, SVG Export Plug-In . SVG Version: 6.00 Build 0)  -->
<svg version="1.1" id="b" xmlns="http://www.w3.org/2000/svg" xmlns:xlink="http://www.w3.org/1999/xlink" x="0px" y="0px"
	 viewBox="0 0 775.4 585.3" style="enable-background:new 0 0 775.4 585.3;" xml:space="preserve">
<style type="text/css">
	.st0{fill:#4156A1;}
	.st1{fill:#990000;}
	.st2{fill:#FAC800;}
	.st3{fill:#8D9E2B;}
	.st4{opacity:0.58;fill:#FFFFFF;enable-background:new    ;}
</style>
<g id="c">
	<path class="st0" d="M388.8,460.6c1.3-8.9,2.3-15.9,2.6-21c0.4-6.6-0.7-7.4-0.7-7.5c0,0-0.5-0.2-2.1,0.6c-11,5.2-23.5,5.1-31.9-0.1
		c-4.9-3.1-10.9-9.4-11.2-22.3c-0.3-12.6,5.8-19.2,10.9-22.6c8.7-5.7,21.3-6.2,32.2-1.2c0.9,0.4,1.2,0.2,1.4,0
		c1.8-1.3,5.7-8.6,3.4-47.4c-1.2-20.6-3.9-47.2-8.4-81.3c-2.3-17.4-4-49.2-3.1-78.6c-5.2,0.4-17,2.3-29.4,4.4
		c-12.1,2-25.9,4.3-35.7,5.5c-3.5,0.4-7.2,0.9-11.1,1.4c-15.8,2-35.4,4.5-65.3,6.1c-16.6,0.9-27,0-33.2-0.5
		c-5.6-0.5-8.8,0.7-9.6,3.7c-0.7,2.6,1,6.9,2.7,11c2.6,6.4,5.5,13.6,1.6,19.4c-3.9,5.8-13.6,8.5-30.7,8.5c-10.8,0-17.7-2.4-21.1-7.2
		c-4.6-6.6-1.3-15.7,1.4-23c1.1-3,2.9-8,2.2-9c0,0-0.8-0.6-4.1,0.1c-23.2,4.8-57,3.7-71.4,3.2c-2.3-0.1-4.1-0.1-5.2-0.2
		c-38.3-0.4-49.7-2.3-65.5-5c-2.4-0.4-4.9-0.8-7.6-1.3v384.8c0,2.2,1.8,4,4,4h380.7C378.4,532.2,384.9,487.5,388.8,460.6z"/>
	<path class="st1" d="M680.6,258.8c-15-2.8-30.8-5.6-44.3-7.2c-22.8-2.6-26.2,0.2-26.6,0.8c-0.2,0.2,0,0.8,0.2,1.1
		c3,6.4,4.7,16.7-0.5,24.8c-2.8,4.4-8.9,9.5-21.4,9.5c-0.3,0-0.6,0-0.9,0c-13.2-0.3-24-5.9-28.8-15c-3.7-6.9-3.3-15.1,1.1-22.7
		c-6.3-1.7-30.3-1.2-46.6-0.9c-4.5,0.1-9,0.2-13.2,0.2c-11.2,0.1-22.4,0.6-34.2,1.4c-24.6,1.6-49.8,4.6-74.9,8.9
		c13.8,107.5,8.7,126.5,2.6,131c-1.9,1.4-4.2,1.5-6.5,0.5c-9.2-4.2-20.2-3.9-27.3,0.8c-5.8,3.8-8.8,10.1-8.6,18.3
		c0.2,8.5,3.1,14.6,8.8,18.1c7,4.3,17.6,4.2,27.1-0.2c3-1.4,5.4-1.4,7.2,0c4.4,3.3,3,13.3,0.1,33.2c-3.9,26.7-10.4,71.3-4,124h381.6
		c2.2,0,4-1.8,4-4V260.4C750.3,263.7,713,264.9,680.6,258.8z"/>
	<path class="st2" d="M397.8,74.7c0.7,0.4,4-0.4,6.2-1c9-2.2,24.1-5.8,30.9,15.3c3,9.4,1.8,17.9-3.4,23.5c-4.3,4.6-13,9.1-30.5,4.7
		c-0.7-0.2-1.7-0.2-2.9,0.9c-5.8,5.2-9.8,26.9-11,59.5c-0.9,25.9,0.2,56.5,2.6,77.2c25.2-4.3,50.5-7.3,75.2-9
		c11.9-0.8,23.2-1.2,34.5-1.4c4.2-0.1,8.7-0.1,13.2-0.2c38.3-0.7,49.8-0.3,52,3.6c0.6,1.1,0.5,2.4-0.2,3.5
		c-4.2,6.5-4.9,13.3-1.8,19.1c3.9,7.4,13.3,12.1,24.5,12.3c8.7,0.2,14.8-2.3,18-7.3c3.8-5.9,2.8-14.3,0.2-19.9
		c-1.5-3.1-0.4-5.3,0.4-6.3c4.8-6.2,25.4-5,75.8,4.5c32.2,6,69.2,4.8,93.9,1.5V4c0-2.2-1.8-4-4-4H414.2L398,71.4
		C397.4,74,397.8,74.7,397.8,74.7z"/>
	<path class="st3" d="M8.4,192.9c15.5,2.7,26.8,4.6,64.7,5c1.1,0,2.9,0.1,5.3,0.2c14.2,0.5,47.6,1.6,70.2-3.1c2.8-0.6,6.7-1,8.9,1.5
		c2.6,3.1,0.9,7.9-1.3,14c-2.3,6.2-5.1,14-2,18.4c2.3,3.4,8.1,5.1,17,5.1c14.8,0,23.7-2.1,26.5-6.3c2.4-3.6,0.1-9.3-2.1-14.7
		c-2.1-5.1-4-9.9-2.8-14.2c2.3-8.5,6-8.1,14.9-7.4c6.4,0.6,16.2,1.4,32.5,0.5c29.7-1.6,49.2-4.1,64.9-6.1c3.9-0.5,7.6-1,11.1-1.4
		c9.7-1.2,23.4-3.4,35.5-5.5c13.4-2.2,25.1-4.2,30.4-4.5c1.1-28,4.7-53,12.6-60c2.2-2,4.8-2.6,7.4-2c11.8,3,21,1.8,25.7-3.2
		c3.9-4.2,4.8-11,2.3-18.6c-5.4-16.7-15.8-14.2-25-12c-4.5,1.1-8.4,2-10.9-0.3c-2.1-2.1-1.7-5.5-1.2-8l16-70.3H4C1.8,0,0,1.8,0,4
		v187.5C3,191.9,5.8,192.4,8.4,192.9z"/>
	<path class="st4" d="M356.7,473.7c0.6-4.7-2.1-9.3-6.6-11c-3.3-1.2-6.4-2.8-9.3-4.6c-15.7-9.8-24.9-26.9-25.3-47.1
		c-0.4-20.2,8.5-37.8,24.4-48.3c4.9-3.2,10.4-5.7,16.2-7.3c4.7-1.3,7.8-5.7,7.5-10.5c-0.1-1.2-0.1-2.5-0.2-3.9
		c-1.2-19.9-3.8-45.8-8.2-79.2c-1.1-8.7-2.2-21.4-2.9-35.9c-0.3-6.2-5.9-10.8-12-9.8c-7.2,1.1-14.2,2.2-20.1,2.9
		c-3.4,0.4-7,0.9-10.8,1.3c-16.3,2.1-36.5,4.7-67.5,6.3c0,0-0.1,0-0.1,0c-4.6,0.2-8.4,3.4-9.6,7.9c-1.4,5.2-3.6,9.4-5.7,12.5
		c-6.1,9-15.2,15.2-27.3,18.5c-7.7,2.1-16.9,3.1-28.2,3.1c-21,0-36.4-6.7-45.7-20c-1.7-2.4-3.4-5.3-4.8-8.9c-1.6-4-5.5-6.6-9.9-6.5
		c-2.9,0.1-5.9,0.1-8.9,0.1c-10.1,0-18.9-0.3-24.7-0.5l-0.1,0c-1.9-0.1-3.7-0.1-4.4-0.1c-13.1-0.1-23.4-0.5-31.8-0.9
		c-6-0.3-11,4.4-11,10.4v302.7c0,5.7,4.6,10.4,10.4,10.4h301.3c5.8,0,10.4-4.7,10.4-10.5C351.7,516.9,354.2,492.7,356.7,473.7
		L356.7,473.7z"/>
	<path class="st4" d="M675,288.3c-8.1-1.5-16.4-3-24.4-4.3c-5.7-0.9-11.3,1.9-14,7c-0.7,1.2-1.4,2.5-2.2,3.7
		c-5.6,8.7-19.2,23.2-46.5,23.2c-0.5,0-1,0-1.5,0c-24.3-0.5-44.7-12.1-54.7-30.9c-0.1-0.1-0.1-0.3-0.2-0.4
		c-2.4-4.6-7.1-7.5-12.3-7.4c-2.1,0-4.1,0.1-6,0.1c-4.5,0.1-9.1,0.2-13.4,0.2c-10.7,0.1-21.4,0.6-32.7,1.3c-9.9,0.7-20,1.6-30.2,2.7
		c-7.4,0.8-12.7,7.4-12,14.8c3,28.5,4.3,50.3,4,66.1c-0.2,13.5-1.5,27.1-7.5,38c-2.2,4-2.4,8.9-0.2,12.9c3.7,6.6,5.3,14.7,5.1,24.2
		c-0.2,7.1-1.4,15.1-3,26.2c-2.6,18-6.5,44.7-6.4,76.3c0,7.4,6.1,13.4,13.5,13.4h301.3c7.4,0,13.5-6,13.5-13.5V306.4
		c0-7.4-6-13.3-13.4-13.3c0,0-0.1,0-0.1,0C711.3,293.1,692.1,291.5,675,288.3L675,288.3z"/>
	<path class="st4" d="M463.4,79.8c6.4,19.8,2.6,39.7-10.1,53.2c-5.3,5.7-14,12.2-27.1,14.8c-4.3,0.8-7.4,4.5-7.9,8.8
		c-0.6,5.8-1.1,13-1.4,22c-0.3,9.8-0.4,20.4-0.2,30.8c0.1,5.8,5.2,10.3,11,9.6c11.8-1.3,23.4-2.4,35-3.2c12.4-0.8,24.2-1.3,36.1-1.4
		c4-0.1,8.3-0.1,12.8-0.2l0.2,0c11.1-0.2,18.8-0.3,24.9-0.3c11.6,0,18.9,0.3,24.6,1.1c7.6,1.1,14.1,3.4,19.2,7.1
		c3.2,2.3,7.5,2.3,10.9,0.2c11.1-6.8,23.8-6.8,28.7-6.8c13.7,0,33.6,2.6,66.6,8.8c13,2.4,28.5,3.7,44.8,3.7c1.2,0,2.5,0,3.7,0
		c5.4-0.1,9.8-4.5,9.8-9.9V39.9c0-5.5-4.4-9.9-9.9-9.9H446c-4.6,0-8.6,3.2-9.7,7.7l-0.2,0.7c-1,4.2,1,8.5,4.6,10.7c1,0.6,2,1.3,3,2
		C452.8,57.7,459.4,67.4,463.4,79.8z"/>
	<path class="st4" d="M79.5,168c5.4,0.2,13.5,0.5,22.6,0.5c21.8,0,34.1-1.6,40.5-2.9c3.5-0.7,6.7-1.1,9.9-1.1c6.2,0,12,1.4,17.1,3.9
		c3.2,1.6,6.9,1.2,9.8-0.8c6.2-4.3,13.8-6.6,22.5-6.6c3,0,5.7,0.2,8.4,0.5c4.1,0.4,9.2,0.8,16.5,0.8c3.7,0,7.6-0.1,11.8-0.3
		c28.6-1.5,47.5-4,62.7-5.9c4-0.5,7.7-1,11.4-1.4c9-1.1,22.3-3.3,34-5.3c0,0,0.1,0,0.1,0c4.2-0.7,7.4-4,8-8.2c0.5-3.6,1-7,1.6-10.2
		c2.4-12.6,5.7-22.1,10.3-29.4c1.9-3,2.1-6.8,0.3-9.9c-3.5-6.3-5.9-15.4-3.4-27.4l0-0.2l0.1-0.2l5-21.9c1.4-6-3.2-11.8-9.4-11.8
		H39.6c-5.3,0-9.6,4.3-9.6,9.6V157c0,5,3.9,9.2,8.9,9.6c8.3,0.6,18.9,1,34.6,1.2C74.9,167.8,76.7,167.9,79.5,168L79.5,168z"/>
	<path d="M476.9,374.3h-5.2v-2.9h14.1v2.9h-5.2v14.5h-3.7V374.3z"/>
	<path d="M486.9,383.6c0,0.8,0,3.2,2.5,3.2c0.9,0,1.8-0.3,2.1-1.7h3.2c0,0.6-0.2,1.6-1.2,2.6c-0.9,0.9-2.5,1.4-4.2,1.4
		c-1,0-3-0.2-4.3-1.5c-1.1-1.2-1.6-2.8-1.6-4.7c0-2,0.5-4.3,2.5-5.7c0.9-0.6,2.1-1,3.4-1c1.7,0,3.8,0.7,4.9,2.9
		c0.8,1.7,0.8,3.4,0.7,4.4H486.9z M491.4,381.4c0-0.6,0-2.7-2.1-2.7c-1.6,0-2.2,1.3-2.3,2.7H491.4z"/>
	<path d="M504.6,388.8c-0.1-0.7-0.1-1.3-0.1-1.7c-1.3,1.9-3,1.9-3.6,1.9c-1.8,0-2.5-0.5-3-1c-0.7-0.7-1.1-1.7-1.1-2.7
		s0.3-2.7,2.6-3.8c1.5-0.7,3.6-0.7,4.8-0.7c0-0.8,0-1.2-0.2-1.6c-0.3-0.9-1.2-1-1.6-1c-0.5,0-1,0.2-1.3,0.7
		c-0.3,0.4-0.3,0.8-0.3,1.1h-3.5c0-0.6,0.1-1.9,1.4-2.9c1.1-0.8,2.5-1,3.7-1c1,0,3.1,0.2,4.3,1.6c0.8,1,0.8,2.4,0.8,3l0,4.9
		c0,1,0.1,2.1,0.3,3.1H504.6z M500.2,385c0,0.8,0.6,1.7,1.7,1.7c0.6,0,1.2-0.3,1.5-0.7c0.6-0.8,0.7-1.7,0.7-3
		C501.9,382.9,500.2,383.6,500.2,385z"/>
	<path d="M510.8,378.9c0-0.8,0-1.5-0.1-2.3h3.4l0.1,1.6c0.4-0.5,1.3-1.8,3.7-1.8c2.8,0,3.6,1.7,3.8,2.3c1-1.9,2.6-2.3,3.9-2.3
		c2.4,0,3.4,1.5,3.7,1.9c0.6,1.1,0.6,2.5,0.6,3.6v6.8h-3.6v-7.1c0-1.3-0.2-2.7-2-2.7c-2.1,0-2.2,2-2.2,3.8v6.1h-3.6v-7.2
		c0-0.9,0-2.7-2-2.7c-2.2,0-2.2,1.9-2.2,2.7v7.1h-3.6V378.9z"/>
	<path d="M540,371.5h5.4c2.5,0,4.6,0.2,6,1.9c0.9,1.1,1.1,2.4,1.1,3.2c0,2-0.8,3.7-2.2,4.6c-1.3,0.8-3,0.8-3.9,0.8h-2.5v6.7H540
		V371.5z M543.7,379.3h1.5c1.2,0,3.4,0,3.4-2.6c0-2.4-2-2.4-3-2.4h-1.9V379.3z"/>
	<path d="M554.7,379.6c0-0.6-0.1-2.3-0.2-3h3.3l0.1,2.3c0.5-1,1.2-2.5,4.1-2.4v3.2c-3.6-0.3-3.8,1.5-3.8,3v6h-3.6V379.6z"/>
	<path d="M569.1,376.4c4.4,0,6.3,3,6.3,6.4c0,3.4-2,6.5-6.4,6.5c-3.5,0-6.2-2.1-6.2-6.4C562.9,379.9,564.4,376.4,569.1,376.4z
		 M569.2,386.7c1.6,0,2.6-0.9,2.6-4.2c0-1.6-0.3-3.8-2.7-3.8c-2.6,0-2.6,3-2.6,4.1C566.5,385.6,567.4,386.7,569.2,386.7z"/>
	<path d="M576.5,391c1.6,0.1,1.6-1.4,1.6-2.1v-12.4h3.6v13.2c0,2.3-0.9,3.7-4,3.7c-0.2,0-0.7,0-1.2-0.1V391z M578,371.5h3.8v3.1H578
		V371.5z"/>
	<path d="M587.6,383.6c0,0.8,0,3.2,2.5,3.2c0.9,0,1.8-0.3,2.1-1.7h3.2c0,0.6-0.2,1.6-1.2,2.6c-0.9,0.9-2.5,1.4-4.2,1.4
		c-1,0-3-0.2-4.3-1.5c-1.1-1.2-1.6-2.8-1.6-4.7c0-2,0.5-4.3,2.5-5.7c0.9-0.6,2.1-1,3.4-1c1.7,0,3.8,0.7,4.9,2.9
		c0.8,1.7,0.8,3.4,0.7,4.4H587.6z M592.1,381.4c0-0.6,0-2.7-2.1-2.7c-1.6,0-2.2,1.3-2.3,2.7H592.1z"/>
	<path d="M604.5,381c0-0.4-0.2-2.2-1.6-2.2c-1.7,0-1.9,2.5-1.9,3.9c0,0.7,0.1,2.8,0.9,3.7c0.3,0.4,0.7,0.4,1,0.4
		c0.4,0,1.5-0.2,1.6-2.3h3.5c0,0.9-0.2,2.4-1.6,3.6c-0.9,0.7-1.9,1.1-3.5,1.1c-1.6,0-3-0.4-4.1-1.6c-1.1-1.2-1.5-2.8-1.5-4.8
		c0-5.5,4.1-6.3,5.7-6.3c2.3,0,4.9,1.2,4.9,4.5H604.5z"/>
	<path d="M617.2,388.6c-1.2,0.3-2.2,0.4-2.8,0.4c-3.6,0-3.6-2.3-3.6-3.3v-6.6h-2.3v-2.4h2.3v-2.4l3.5-1.3v3.7h2.9v2.4h-2.9v5.5
		c0,1.1,0,1.8,1.6,1.8c0.5,0,0.8,0,1.2-0.1V388.6z"/>
	<path d="M631.1,370.6c-0.8,2.4-2.1,6.3-2.1,10.6c0,3.2,0.7,5.6,2.1,10.5h-2.6c-1.4-3.3-2.4-6.8-2.4-10.4c0-3.7,1.1-7.3,2.4-10.7
		H631.1z"/>
	<path d="M636.7,384.2c0,0.5,0.2,2.2,2.2,2.2c1.3,0,2.2-1,2.2-2.3c0-2.5-2.4-2.5-4.1-2.5v-2.8c1.7,0,4.2-0.1,4.2-2.5
		c0-1.3-1-2-2.1-2c-1,0-2,0.7-2,2.1h-3.7c0.1-0.7,0.1-1.8,1-2.8c1.1-1.3,2.9-1.8,4.7-1.8c4.3,0,5.6,2.7,5.6,4.6
		c0,2.8-2.5,3.6-3.2,3.8c0.5,0.2,1.2,0.4,2,1c1.2,1,1.4,2.2,1.4,3c0,2.8-2.6,4.9-6.1,4.9c-1.2,0-3-0.3-4-1.1
		c-1.5-1.2-1.5-3.1-1.5-3.8H636.7z"/>
	<path d="M652.6,371.8c2.4,0,3.7,1.3,4.4,2.2c0.9,1.3,1.5,2.9,1.5,6c0,3.9-0.9,9-5.9,9c-4.3,0-5.8-4.1-5.8-8.6
		C646.8,378.2,647.2,371.8,652.6,371.8z M654.5,376.5c-0.1-0.5-0.5-1.9-1.8-1.9c-1,0-1.5,0.9-1.7,1.4c-0.6,1.7-0.6,4.3-0.6,4.7
		c0,2.9,0.4,5.5,2.2,5.5c1.9,0,2.2-3.3,2.2-5.6C654.9,379.6,654.8,377.6,654.5,376.5z"/>
	<path d="M664.4,370.5c3.3,0,3.9,2.1,3.9,4.4c0,1.2,0,4.8-4.1,4.8c-2.8,0-3.8-2-3.8-4.6C660.4,373.9,660.4,370.5,664.4,370.5z
		 M664.3,377.7c0.8,0,1.4-0.5,1.4-2.8c0-1-0.1-2.5-1.3-2.5c-1.4,0-1.4,1.9-1.4,2.7C663,376.9,663.3,377.7,664.3,377.7z M675.3,370.3
		l-9.1,18.7h-1.8l9.1-18.7H675.3z M675.5,379.8c3.3,0,3.9,2.1,3.9,4.4c0,1.2,0,4.8-4.1,4.8c-2.8,0-3.8-2-3.8-4.6
		C671.5,383.2,671.5,379.8,675.5,379.8z M675.4,387c0.8,0,1.4-0.5,1.4-2.8c0-1-0.1-2.5-1.3-2.5c-1.4,0-1.4,1.9-1.4,2.7
		C674,386.2,674.3,387,675.4,387z"/>
	<path d="M682,391.7c0.8-2.4,2.1-6.3,2.1-10.6c0-3.2-0.7-5.6-2.1-10.5h2.6c1.4,3.3,2.4,6.8,2.4,10.4c0,3.7-1.1,7.3-2.4,10.7H682z"/>
	<path d="M478.5,416.6c0,2-1.6,3.6-3.6,3.6c-2,0-3.6-1.6-3.6-3.6c0-2,1.6-3.6,3.6-3.6C476.9,412.9,478.5,414.6,478.5,416.6z"/>
	<path d="M491.2,423.8V411h-4.8v-1.7H498v1.7h-4.8v12.7H491.2z"/>
	<path d="M498.7,419.1c0,2.1,0.8,3.6,2.9,3.6c1.2,0,2.2-0.6,2.4-2.1h1.9c-0.1,0.5-0.1,1.3-0.9,2.1c-0.4,0.5-1.4,1.3-3.5,1.3
		c-3.2,0-4.7-2-4.7-5.1c0-2,0.4-3.6,2-4.7c1-0.7,2.2-0.7,2.7-0.7c4.5,0,4.4,4,4.4,5.6H498.7z M504,417.8c0-1-0.2-3-2.5-3
		c-1.2,0-2.7,0.7-2.7,3H504z"/>
	<path d="M514.8,423.8c-0.1-0.5-0.2-1-0.2-1.5c-0.9,1.7-2.3,1.8-3.1,1.8c-2.3,0-3.5-1.3-3.5-3c0-0.8,0.3-2.1,1.8-2.9
		c1.1-0.6,2.7-0.7,3.5-0.7c0.5,0,0.8,0,1.4,0.1c0-1.2,0-1.8-0.4-2.2c-0.4-0.5-1.2-0.7-1.7-0.7c-1.9,0-2,1.3-2,1.7h-1.9
		c0.1-0.5,0.1-1.2,0.7-1.9c0.8-0.8,2.2-1.1,3.2-1.1c1.5,0,3,0.5,3.6,1.5c0.3,0.6,0.3,1.1,0.3,1.5l-0.1,4.8c0,0.2,0,1.5,0.2,2.5
		H514.8z M513.5,418.8c-0.8,0-3.6,0-3.6,2c0,0.6,0.4,1.7,2.1,1.7c1,0,1.7-0.4,2.1-1.1c0.4-0.7,0.4-1.2,0.5-2.6
		C514.3,418.9,514,418.8,513.5,418.8z"/>
	<path d="M519.8,415.1l0-1.3h1.9v1.5c1-1.6,2.3-1.7,3.2-1.7c2.2,0,2.9,1.1,3.3,1.9c0.3-0.6,1.2-1.9,3.4-1.9c1.4,0,3.7,0.6,3.7,3.6
		v6.7h-1.9v-6.4c0-0.9-0.2-1.3-0.3-1.5c-0.3-0.5-1-0.9-1.9-0.9c-1.2,0-1.9,0.7-2.1,1.1c-0.4,0.6-0.4,1.7-0.4,2.2v5.6h-1.9v-6.6
		c0-1.2-0.7-2.2-2.2-2.2c-1.3,0-2,0.8-2.2,1.1c-0.4,0.6-0.4,1.4-0.4,2v5.7h-1.9V415.1z"/>
	<path d="M545.7,419.6c0,1,0.2,2.9,3.5,2.9c3,0,3.4-1.9,3.4-2.6c0-1.6-1.3-1.9-3.3-2.4c-2.2-0.5-3.2-0.8-3.9-1.3
		c-1.2-0.8-1.5-1.9-1.5-2.8c0-2.9,2.8-4.2,5.5-4.2c1,0,2.9,0.2,4.1,1.4c0.8,0.9,0.8,1.9,0.9,2.5h-2.1c-0.1-1.8-1.6-2.2-3-2.2
		c-2,0-3.2,0.9-3.2,2.3c0,1.3,0.8,1.7,2.6,2.1c3.4,0.9,3.8,1,4.7,1.5c1.3,0.9,1.4,2.3,1.4,2.9c0,2.6-2,4.5-5.7,4.5
		c-1.1,0-3.3-0.2-4.5-1.6c-0.8-1.1-0.8-2.2-0.8-2.9H545.7z"/>
	<path d="M559.3,413.7v6.5c0,1,0.2,2.2,2.1,2.2c0.9,0,1.8-0.3,2.4-1.1c0.4-0.6,0.4-1.4,0.4-1.9v-5.7h1.9v8.2c0,0.2,0,1.3,0.1,1.9h-2
		l0-1.7c-0.4,0.7-1,1.8-3.2,1.8c-2.5,0-3.6-1.4-3.6-3.4v-6.7H559.3z"/>
	<path d="M571.7,415.2c0.3-0.5,1-1.7,3.3-1.7c1,0,2.3,0.2,3.2,1.3c0.5,0.6,1.2,1.6,1.2,3.8c0,1.9-0.5,3-1,3.7
		c-0.8,1.1-2.1,1.7-3.5,1.7c-0.5,0-1.4-0.1-2.2-0.6c-0.6-0.4-0.8-0.7-1-1l0,1.5h-1.8l0-1.8v-12.6h1.9V415.2z M574.5,414.8
		c-2.9,0-2.9,3.4-2.9,4c0,0.7,0,3.8,2.8,3.8c2.3,0,2.9-2.3,2.9-3.9C577.4,417.7,577.2,414.8,574.5,414.8z"/>
	<path d="M582,415.1l0-1.3h1.9v1.5c1-1.6,2.3-1.7,3.2-1.7c2.2,0,2.9,1.1,3.3,1.9c0.3-0.6,1.2-1.9,3.4-1.9c1.4,0,3.7,0.6,3.7,3.6v6.7
		h-1.9v-6.4c0-0.9-0.2-1.3-0.3-1.5c-0.3-0.5-1-0.9-1.9-0.9c-1.2,0-1.9,0.7-2.1,1.1c-0.4,0.6-0.4,1.7-0.4,2.2v5.6h-1.9v-6.6
		c0-1.2-0.7-2.2-2.2-2.2c-1.3,0-2,0.8-2.2,1.1c-0.4,0.6-0.4,1.4-0.4,2v5.7H582V415.1z"/>
	<path d="M600.7,409.4h2.3v2.1h-2.3V409.4z M600.9,413.7h1.9v10h-1.9V413.7z"/>
	<path d="M607.6,420.8c0,0.8,0.4,1.8,2.2,1.8c0.8,0,1.4-0.1,1.8-0.6c0.2-0.3,0.3-0.6,0.3-0.9c0-1-0.7-1.2-2.2-1.5
		c-2.1-0.5-3.9-0.9-3.9-3c0-1.8,1.6-3,3.9-3c1.3,0,3,0.4,3.6,1.6c0.3,0.6,0.3,1,0.3,1.5h-1.9c0.1-1.5-1.3-1.6-1.9-1.6
		c-0.3,0-2,0-2,1.4c0,0.9,0.9,1.1,1.4,1.3c2.8,0.7,3.4,0.8,4,1.4c0.6,0.5,0.8,1.2,0.8,1.9c0,1.1-0.6,2.1-1.4,2.5
		c-0.9,0.5-1.9,0.7-3,0.7c-2,0-3.9-0.8-3.9-3.3H607.6z"/>
	<path d="M617.6,420.8c0,0.8,0.4,1.8,2.2,1.8c0.8,0,1.4-0.1,1.8-0.6c0.2-0.3,0.3-0.6,0.3-0.9c0-1-0.7-1.2-2.2-1.5
		c-2.1-0.5-3.9-0.9-3.9-3c0-1.8,1.6-3,3.9-3c1.3,0,3,0.4,3.6,1.6c0.3,0.6,0.3,1,0.3,1.5h-1.9c0.1-1.5-1.3-1.6-1.9-1.6
		c-0.3,0-2,0-2,1.4c0,0.9,0.9,1.1,1.4,1.3c2.8,0.7,3.4,0.8,4,1.4c0.6,0.5,0.8,1.2,0.8,1.9c0,1.1-0.6,2.1-1.4,2.5
		c-0.9,0.5-1.9,0.7-3,0.7c-2,0-3.9-0.8-3.9-3.3H617.6z"/>
	<path d="M626.3,409.4h2.3v2.1h-2.3V409.4z M626.5,413.7h1.9v10h-1.9V413.7z"/>
	<path d="M636.4,413.5c4,0,4.9,3.2,4.9,5.3c0,2.9-1.7,5.4-5.1,5.4c-3.3,0-4.9-2.3-4.9-5.2C631.3,416.4,632.5,413.5,636.4,413.5z
		 M636.3,422.7c1.4,0,3-1,3-4c0-2.5-1.2-3.8-2.9-3.8c-1.2,0-3.1,0.8-3.1,3.9C633.3,420.8,634.1,422.7,636.3,422.7z"/>
	<path d="M644.3,414.9l0-1.2h1.9l0,1.6c0.2-0.4,0.9-1.8,3.2-1.8c0.9,0,3.6,0.3,3.6,3.4v6.8h-1.9v-6.4c0-0.7-0.1-1.3-0.5-1.7
		c-0.5-0.5-1.1-0.7-1.8-0.7c-1.4,0-2.6,1-2.6,3v5.8h-1.9V414.9z"/>
	<path d="M478.5,451.6c0,2-1.6,3.6-3.6,3.6c-2,0-3.6-1.6-3.6-3.6c0-2,1.6-3.6,3.6-3.6C476.9,447.9,478.5,449.6,478.5,451.6z"/>
	<path d="M491.3,444.3h2v14.4h-2V444.3z"/>
	<path d="M496.9,449.9l0-1.2h1.9l0,1.6c0.2-0.4,0.9-1.8,3.2-1.8c0.9,0,3.6,0.3,3.6,3.4v6.8h-1.9v-6.4c0-0.7-0.1-1.3-0.5-1.7
		c-0.5-0.5-1.1-0.7-1.8-0.7c-1.4,0-2.6,1-2.6,3v5.8h-1.9V449.9z"/>
	<path d="M516,444.4h1.9v12.8c0,0.2,0,1.1,0.1,1.6h-1.9l0-1.6c-0.2,0.3-0.4,0.7-0.9,1.1c-0.8,0.6-1.8,0.7-2.5,0.7
		c-1.3,0-4.3-0.7-4.3-5.1c0-3.8,2.2-5.5,4.5-5.5c2.2,0,2.9,1.3,3.1,1.7V444.4z M515.3,450.8c-0.4-0.5-1.1-1-2.2-1
		c-2.8,0-2.8,3.3-2.8,4c0,1.8,0.5,3.8,2.8,3.8c3,0,3-3.3,3-4C516.1,452.2,515.7,451.4,515.3,450.8z"/>
	<path d="M521.1,444.4h2.3v2.1h-2.3V444.4z M521.3,448.7h1.9v10h-1.9V448.7z"/>
	<path d="M525.7,448.7h2.1l3.2,8l3.1-8h2.1l-4.4,10h-1.9L525.7,448.7z"/>
	<path d="M538.2,444.4h2.3v2.1h-2.3V444.4z M538.4,448.7h1.9v10h-1.9V448.7z"/>
	<path d="M550.9,444.4h1.9v12.8c0,0.2,0,1.1,0.1,1.6h-1.9l0-1.6c-0.2,0.3-0.4,0.7-0.9,1.1c-0.8,0.6-1.8,0.7-2.5,0.7
		c-1.3,0-4.3-0.7-4.3-5.1c0-3.8,2.2-5.5,4.5-5.5c2.2,0,2.9,1.3,3.1,1.7V444.4z M550.2,450.8c-0.4-0.5-1.1-1-2.2-1
		c-2.8,0-2.8,3.3-2.8,4c0,1.8,0.5,3.8,2.8,3.8c3,0,3-3.3,3-4C550.9,452.2,550.6,451.4,550.2,450.8z"/>
	<path d="M557.8,448.7v6.5c0,1,0.2,2.2,2.1,2.2c0.9,0,1.8-0.3,2.4-1.1c0.4-0.6,0.4-1.4,0.4-1.9v-5.7h1.9v8.2c0,0.2,0,1.3,0.1,1.9h-2
		l0-1.7c-0.4,0.7-1,1.8-3.2,1.8c-2.5,0-3.6-1.4-3.6-3.4v-6.7H557.8z"/>
	<path d="M574.5,458.8c-0.1-0.5-0.2-1-0.2-1.5c-0.9,1.7-2.3,1.8-3.1,1.8c-2.3,0-3.5-1.3-3.5-3c0-0.8,0.3-2.1,1.8-2.9
		c1.1-0.6,2.7-0.7,3.5-0.7c0.5,0,0.8,0,1.4,0.1c0-1.2,0-1.8-0.4-2.2c-0.4-0.5-1.2-0.7-1.7-0.7c-1.9,0-2,1.3-2,1.7h-1.9
		c0.1-0.5,0.1-1.2,0.7-1.9c0.8-0.8,2.2-1.1,3.2-1.1c1.5,0,3,0.5,3.6,1.5c0.3,0.6,0.3,1.1,0.3,1.5l-0.1,4.8c0,0.2,0,1.5,0.2,2.5
		H574.5z M573.2,453.8c-0.8,0-3.6,0-3.6,2c0,0.6,0.4,1.7,2.1,1.7c1,0,1.7-0.4,2.1-1.1c0.4-0.7,0.4-1.2,0.5-2.6
		C573.9,453.9,573.6,453.8,573.2,453.8z"/>
	<path d="M579.5,444.4h1.9v14.4h-1.9V444.4z"/>
	<path d="M599.3,448.2c-0.1-0.5-0.3-2.5-3.1-2.5c-3.5,0-4.1,3.6-4.1,6c0,2.7,0.8,5.7,4.1,5.7c0.9,0,1.7-0.2,2.3-0.9
		c0.5-0.6,0.6-1.2,0.7-1.5h2.2c-0.3,2.8-2.9,4-5.4,4c-5.1,0-6.1-4.5-6.1-7.3c0-3,1.2-7.6,6.3-7.6c2,0,4.9,0.8,5.2,4.1H599.3z"/>
	<path d="M608.3,448.5c4,0,4.9,3.2,4.9,5.3c0,2.9-1.7,5.4-5.1,5.4c-3.3,0-4.9-2.3-4.9-5.2C603.2,451.4,604.3,448.5,608.3,448.5z
		 M608.2,457.7c1.4,0,3-1,3-4c0-2.5-1.2-3.8-2.9-3.8c-1.2,0-3.1,0.8-3.1,3.9C605.1,455.8,606,457.7,608.2,457.7z"/>
	<path d="M616.2,449.9l0-1.2h1.9l0,1.6c0.2-0.4,0.9-1.8,3.2-1.8c0.9,0,3.6,0.3,3.6,3.4v6.8H623v-6.4c0-0.7-0.1-1.3-0.5-1.7
		c-0.5-0.5-1.1-0.7-1.8-0.7c-1.4,0-2.6,1-2.6,3v5.8h-1.9V449.9z"/>
	<path d="M626.8,448.7h1.8v-2.1l1.9-0.6v2.7h2.2v1.4h-2.2v6c0,0.5,0,1.3,1.3,1.3c0.4,0,0.7-0.1,0.9-0.1v1.5
		c-0.3,0.1-0.9,0.1-1.6,0.1c-1.7,0-2.5-0.5-2.5-2.1v-6.7h-1.8V448.7z"/>
	<path d="M635.1,450.8c0-0.7,0-1.4-0.1-2h1.9l0,1.9c0.4-1.4,1.6-1.9,2.4-2c0.6-0.1,1-0.1,1.3,0v1.8c-0.1,0-0.2-0.1-0.4-0.1
		c-0.1,0-0.3,0-0.5,0c-2.2,0-2.7,1.3-2.7,3v5.3h-1.9V450.8z"/>
	<path d="M642.6,444.4h2.3v2.1h-2.3V444.4z M642.8,448.7h1.9v10h-1.9V448.7z"/>
	<path d="M650.2,450.2c0.3-0.5,1-1.7,3.3-1.7c1,0,2.3,0.2,3.2,1.3c0.5,0.6,1.2,1.6,1.2,3.8c0,1.9-0.5,3-1,3.7
		c-0.8,1.1-2.1,1.7-3.5,1.7c-0.5,0-1.4-0.1-2.2-0.6c-0.6-0.4-0.8-0.7-1-1l0,1.5h-1.8l0-1.8v-12.6h1.9V450.2z M653.1,449.8
		c-2.9,0-2.9,3.4-2.9,4c0,0.7,0,3.8,2.8,3.8c2.3,0,2.9-2.3,2.9-3.9C655.9,452.7,655.7,449.8,653.1,449.8z"/>
	<path d="M662.3,448.7v6.5c0,1,0.2,2.2,2.1,2.2c0.9,0,1.8-0.3,2.4-1.1c0.4-0.6,0.4-1.4,0.4-1.9v-5.7h1.9v8.2c0,0.2,0,1.3,0.1,1.9h-2
		l0-1.7c-0.4,0.7-1,1.8-3.2,1.8c-2.5,0-3.6-1.4-3.6-3.4v-6.7H662.3z"/>
	<path d="M671.3,448.7h1.8v-2.1l1.9-0.6v2.7h2.2v1.4h-2.2v6c0,0.5,0,1.3,1.3,1.3c0.4,0,0.7-0.1,0.9-0.1v1.5
		c-0.3,0.1-0.9,0.1-1.6,0.1c-1.7,0-2.5-0.5-2.5-2.1v-6.7h-1.8V448.7z"/>
	<path d="M679.3,444.4h2.3v2.1h-2.3V444.4z M679.5,448.7h1.9v10h-1.9V448.7z"/>
	<path d="M689.4,448.5c4,0,4.9,3.2,4.9,5.3c0,2.9-1.7,5.4-5.1,5.4c-3.3,0-4.9-2.3-4.9-5.2C684.3,451.4,685.4,448.5,689.4,448.5z
		 M689.3,457.7c1.4,0,3-1,3-4c0-2.5-1.2-3.8-2.9-3.8c-1.2,0-3.1,0.8-3.1,3.9C686.2,455.8,687.1,457.7,689.3,457.7z"/>
	<path d="M697.3,449.9l0-1.2h1.9l0,1.6c0.2-0.4,0.9-1.8,3.2-1.8c0.9,0,3.6,0.3,3.6,3.4v6.8h-1.9v-6.4c0-0.7-0.1-1.3-0.5-1.7
		c-0.5-0.5-1.1-0.7-1.8-0.7c-1.4,0-2.6,1-2.6,3v5.8h-1.9V449.9z"/>
	<path d="M478.5,486.6c0,2-1.6,3.6-3.6,3.6c-2,0-3.6-1.6-3.6-3.6c0-2,1.6-3.6,3.6-3.6C476.9,482.9,478.5,484.6,478.5,486.6z"/>
	<path d="M491.2,479.3h5.2c0.7,0,2.3,0,3.3,0.7c1.1,0.7,1.6,1.8,1.6,2.9c0,1-0.4,1.9-1,2.6c-0.6,0.6-1.3,0.8-1.7,0.9
		c1.4,0.4,2,1,2.2,2.8c0.2,1.7,0.3,2.9,0.9,4.5h-2.1c-0.3-1-0.5-2.7-0.7-3.8c-0.2-2.1-0.7-2.7-3.2-2.7h-2.5v6.5h-2V479.3z
		 M493.2,485.6h3.2c0.2,0,1.4,0,1.9-0.3c0.3-0.2,1-0.7,1-1.9c0-2.3-2.1-2.3-2.9-2.3h-3.2V485.6z"/>
	<path d="M505.3,489.1c0,2.1,0.8,3.6,2.9,3.6c1.2,0,2.2-0.6,2.4-2.1h1.9c-0.1,0.5-0.1,1.3-0.9,2.1c-0.4,0.5-1.4,1.3-3.5,1.3
		c-3.2,0-4.7-2-4.7-5.1c0-2,0.4-3.6,2-4.7c1-0.7,2.2-0.7,2.7-0.7c4.5,0,4.4,4,4.4,5.6H505.3z M510.6,487.8c0-1-0.2-3-2.5-3
		c-1.2,0-2.7,0.7-2.7,3H510.6z"/>
	<path d="M520.3,480.7c-0.3,0-0.7,0-1.1,0c-1.5,0-1.5,0.8-1.5,1.5v1.6h2.3v1.4h-2.3v8.7h-1.9v-8.7h-2v-1.4h2v-1.1
		c0-1.4,0.1-1.9,0.4-2.4c0.4-0.7,1.3-1.1,2.5-1.1c0.5,0,1.1,0.1,1.5,0.1V480.7z M521.9,479.4h1.9v14.4h-1.9V479.4z"/>
	<path d="M528.7,489.1c0,2.1,0.8,3.6,2.9,3.6c1.2,0,2.2-0.6,2.4-2.1h1.9c-0.1,0.5-0.1,1.3-0.9,2.1c-0.4,0.5-1.4,1.3-3.5,1.3
		c-3.2,0-4.7-2-4.7-5.1c0-2,0.4-3.6,2-4.7c1-0.7,2.2-0.7,2.7-0.7c4.5,0,4.4,4,4.4,5.6H528.7z M534,487.8c0-1-0.2-3-2.5-3
		c-1.2,0-2.7,0.7-2.7,3H534z"/>
	<path d="M544.4,487c0-0.5-0.2-2.1-2-2.1c-2.6,0-2.6,3-2.6,3.8c0,2.1,0.5,4,2.5,4c1.6,0,2.1-1.2,2.2-2.2h1.9c-0.1,2-1.6,3.6-4.1,3.6
		c-0.7,0-2.2-0.1-3.3-1.3c-0.6-0.7-1.2-1.8-1.2-3.8c0-4.2,2.6-5.4,4.6-5.4c0.7,0,2.2,0.1,3.1,1.2c0.7,0.9,0.8,1.7,0.8,2.2H544.4z"/>
	<path d="M547.1,483.7h1.8v-2.1l1.9-0.6v2.7h2.2v1.4h-2.2v6c0,0.5,0,1.3,1.3,1.3c0.4,0,0.7-0.1,0.9-0.1v1.5
		c-0.3,0.1-0.9,0.1-1.6,0.1c-1.7,0-2.5-0.5-2.5-2.1v-6.7h-1.8V483.7z"/>
	<path d="M555.1,479.4h2.3v2.1h-2.3V479.4z M555.3,483.7h1.9v10h-1.9V483.7z"/>
	<path d="M565.2,483.5c4,0,4.9,3.2,4.9,5.3c0,2.9-1.7,5.4-5.1,5.4c-3.3,0-4.9-2.3-4.9-5.2C560.1,486.4,561.3,483.5,565.2,483.5z
		 M565.1,492.7c1.4,0,3-1,3-4c0-2.5-1.2-3.8-2.9-3.8c-1.2,0-3.1,0.8-3.1,3.9C562.1,490.8,563,492.7,565.1,492.7z"/>
	<path d="M573.2,484.9l0-1.2h1.9l0,1.6c0.2-0.4,0.9-1.8,3.2-1.8c0.9,0,3.6,0.3,3.6,3.4v6.8H580v-6.4c0-0.7-0.1-1.3-0.5-1.7
		c-0.5-0.5-1.1-0.7-1.8-0.7c-1.4,0-2.6,1-2.6,3v5.8h-1.9V484.9z"/>
	<path d="M68.8,349.4h6.1l3.7,12.6l4-12.6h5.9v17.4h-3.7v-14.9L80,366.8h-3.1l-4.6-14.9v14.9h-3.5C68.8,366.8,68.8,349.4,68.8,349.4
		z"/>
	<path d="M91.5,349.5h3.8v3.1h-3.8V349.5z M91.6,354.6h3.6v12.1h-3.6C91.6,366.8,91.6,354.6,91.6,354.6z"/>
	<path d="M98.3,356.8c0,0,0-1.4-0.1-2.2h3.4l0.1,1.8c0.3-0.6,1.3-2.1,3.9-2.1c2.4,0,3.4,1.4,3.7,2.3c0.3,0.7,0.3,1.4,0.3,3.6v6.6
		h-3.6v-7.5c0-0.5,0-0.9-0.2-1.3c-0.3-0.5-0.8-1-1.7-1c-0.8,0-1.5,0.4-1.8,0.9c-0.2,0.3-0.4,0.9-0.4,1.8v7.1h-3.6L98.3,356.8
		L98.3,356.8z"/>
	<path d="M112.8,349.5h3.8v3.1h-3.8V349.5z M112.9,354.6h3.6v12.1h-3.6V354.6z"/>
	<path d="M126.3,349.5h5.4c2.5,0,4.6,0.2,6,1.9c0.9,1.1,1.1,2.4,1.1,3.2c0,2-0.8,3.7-2.2,4.6c-1.3,0.8-3,0.8-3.9,0.8H130v6.7h-3.8
		C126.3,366.8,126.3,349.5,126.3,349.5z M129.9,357.3h1.5c1.2,0,3.4,0,3.4-2.6c0-2.4-2-2.4-3-2.4h-1.9V357.3z"/>
	<path d="M140.9,357.6c0-0.6-0.1-2.3-0.2-3h3.3l0.1,2.3c0.5-1,1.2-2.5,4.1-2.4v3.2c-3.6-0.3-3.8,1.5-3.8,3v6h-3.6V357.6z"/>
	<path d="M155.4,354.4c4.4,0,6.3,3,6.3,6.4c0,3.4-2,6.5-6.4,6.5c-3.5,0-6.2-2.1-6.2-6.4C149.1,357.9,150.6,354.4,155.4,354.4z
		 M155.4,364.7c1.6,0,2.6-0.9,2.6-4.2c0-1.6-0.3-3.8-2.7-3.8c-2.6,0-2.6,3-2.6,4.1C152.8,363.6,153.7,364.7,155.4,364.7z"/>
	<path d="M162.7,369c1.6,0.1,1.6-1.4,1.6-2.1v-12.4h3.6v13.2c0,2.3-0.9,3.7-4,3.7c-0.2,0-0.7,0-1.2-0.1V369z M164.2,349.5h3.8v3.1
		h-3.8V349.5z"/>
	<path d="M173.9,361.6c0,0.8,0,3.2,2.5,3.2c0.9,0,1.8-0.3,2.1-1.7h3.2c0,0.6-0.2,1.6-1.2,2.6c-0.9,0.9-2.5,1.4-4.2,1.4
		c-1,0-3-0.2-4.3-1.5c-1.1-1.2-1.6-2.8-1.6-4.7c0-2,0.5-4.3,2.5-5.7c0.9-0.6,2.1-1,3.4-1c1.7,0,3.8,0.7,4.9,2.9
		c0.8,1.7,0.8,3.4,0.7,4.4H173.9z M178.4,359.4c0-0.6,0-2.7-2.1-2.7c-1.6,0-2.2,1.3-2.3,2.7H178.4z"/>
	<path d="M190.8,359c0-0.4-0.2-2.2-1.6-2.2c-1.7,0-1.9,2.5-1.9,3.9c0,0.7,0.1,2.8,0.9,3.7c0.3,0.4,0.7,0.4,1,0.4
		c0.4,0,1.5-0.2,1.6-2.3h3.5c0,0.9-0.2,2.4-1.6,3.6c-0.9,0.7-1.9,1.1-3.5,1.1c-1.6,0-3-0.4-4.1-1.6c-1.1-1.2-1.5-2.8-1.5-4.8
		c0-5.5,4.1-6.3,5.7-6.3c2.3,0,4.9,1.2,4.9,4.5H190.8z"/>
	<path d="M203.5,366.6c-1.2,0.3-2.2,0.4-2.8,0.4c-3.6,0-3.6-2.3-3.6-3.3v-6.6h-2.3v-2.4h2.3v-2.4l3.5-1.3v3.7h2.9v2.4h-2.9v5.5
		c0,1.1,0,1.8,1.6,1.8c0.5,0,0.8,0,1.2-0.1V366.6z"/>
	<path d="M208.2,363.3c0,0.8,0.5,1.7,2,1.7c1.3,0,1.9-0.7,1.9-1.4c0-0.6-0.3-1-1.7-1.4l-2.2-0.6c-1-0.3-3.1-0.9-3.1-3.4
		c0-2.4,2.2-3.8,5.3-3.8c2.5,0,4.5,1.2,4.6,3.6h-3.2c-0.1-1.3-1.2-1.4-1.7-1.4c-1,0-1.7,0.5-1.7,1.2c0,0.8,0.6,1,1.7,1.3l2.2,0.6
		c2.2,0.6,3.2,1.7,3.2,3.4c0,2.1-1.8,4.2-5.6,4.2c-1.6,0-3-0.3-4.2-1.5c-0.8-0.8-0.9-1.8-0.9-2.4H208.2z"/>
	<path d="M229.4,348.6c-0.8,2.4-2.1,6.3-2.1,10.6c0,3.2,0.7,5.6,2.1,10.5h-2.6c-1.4-3.3-2.4-6.8-2.4-10.4c0-3.7,1.1-7.3,2.4-10.7
		H229.4z"/>
	<path d="M231.2,363.1v-3.2l6.7-9.9h3.6l0,10.3h2.3v2.8h-2.3v3.6h-3.6v-3.6H231.2z M233.9,360.4h4.2V356c0-0.2,0-1.4,0-1.8
		L233.9,360.4z"/>
	<path d="M250.9,349.8c2.4,0,3.7,1.3,4.4,2.2c0.9,1.3,1.5,2.9,1.5,6c0,3.9-0.9,9-5.9,9c-4.3,0-5.8-4.1-5.8-8.6
		C245,356.2,245.5,349.8,250.9,349.8z M252.7,354.5c-0.1-0.5-0.5-1.9-1.8-1.9c-1,0-1.5,0.9-1.7,1.4c-0.6,1.7-0.6,4.3-0.6,4.7
		c0,2.9,0.4,5.5,2.2,5.5c1.9,0,2.2-3.3,2.2-5.6C253.2,357.6,253,355.6,252.7,354.5z"/>
	<path d="M262.7,348.5c3.3,0,3.9,2.1,3.9,4.4c0,1.2,0,4.8-4.1,4.8c-2.8,0-3.8-2-3.8-4.6C258.7,351.9,258.7,348.5,262.7,348.5z
		 M262.6,355.7c0.8,0,1.4-0.5,1.4-2.8c0-1-0.1-2.5-1.3-2.5c-1.4,0-1.4,1.9-1.4,2.7C261.3,354.9,261.6,355.7,262.6,355.7z
		 M273.5,348.3l-9.1,18.7h-1.8l9.1-18.7H273.5z M273.7,357.8c3.3,0,3.9,2.1,3.9,4.4c0,1.2,0,4.8-4.1,4.8c-2.8,0-3.8-2-3.8-4.6
		C269.7,361.2,269.7,357.8,273.7,357.8z M273.6,365c0.8,0,1.4-0.5,1.4-2.8c0-1-0.1-2.5-1.3-2.5c-1.4,0-1.4,1.9-1.4,2.7
		C272.3,364.2,272.6,365,273.6,365z"/>
	<path d="M280.3,369.7c0.8-2.4,2.1-6.3,2.1-10.6c0-3.2-0.7-5.6-2.1-10.5h2.6c1.4,3.3,2.4,6.8,2.4,10.4c0,3.7-1.1,7.3-2.4,10.7H280.3
		z"/>
	<path d="M74.5,394.6c0,2-1.6,3.6-3.6,3.6c-2,0-3.6-1.6-3.6-3.6c0-2,1.6-3.6,3.6-3.6C72.9,390.9,74.5,392.6,74.5,394.6z"/>
	<path d="M88.7,397.6c0,1,0.2,2.9,3.5,2.9c3,0,3.4-1.9,3.4-2.6c0-1.6-1.3-1.9-3.3-2.4c-2.2-0.5-3.2-0.8-3.9-1.3
		c-1.2-0.8-1.5-1.9-1.5-2.8c0-2.9,2.8-4.2,5.5-4.2c1,0,2.9,0.2,4.1,1.4c0.8,0.9,0.8,1.9,0.9,2.5h-2.1c-0.1-1.8-1.6-2.2-3-2.2
		c-2,0-3.2,0.9-3.2,2.3c0,1.3,0.8,1.7,2.6,2.1c3.4,0.9,3.8,1,4.7,1.5c1.3,0.9,1.4,2.3,1.4,2.9c0,2.6-2,4.5-5.7,4.5
		c-1.1,0-3.3-0.2-4.5-1.6c-0.8-1.1-0.8-2.2-0.8-2.9C86.6,397.6,88.7,397.6,88.7,397.6z"/>
	<path d="M102.3,391.7v6.5c0,1,0.2,2.2,2.1,2.2c0.9,0,1.8-0.3,2.4-1.1c0.4-0.6,0.4-1.4,0.4-1.9v-5.7h1.9v8.2c0,0.2,0,1.3,0.1,1.9h-2
		l0-1.7c-0.4,0.7-1,1.8-3.2,1.8c-2.5,0-3.6-1.4-3.6-3.4v-6.7C100.4,391.7,102.3,391.7,102.3,391.7z"/>
	<path d="M114.7,393.2c0.3-0.5,1-1.7,3.3-1.7c1,0,2.3,0.2,3.2,1.3c0.5,0.6,1.2,1.6,1.2,3.8c0,1.9-0.5,3-1,3.7
		c-0.8,1.1-2.1,1.7-3.5,1.7c-0.5,0-1.4-0.1-2.2-0.6c-0.6-0.4-0.8-0.7-1-1l0,1.5h-1.8l0-1.8v-12.6h1.9V393.2z M117.5,392.8
		c-2.9,0-2.9,3.4-2.9,4c0,0.7,0,3.8,2.8,3.8c2.3,0,2.9-2.3,2.9-3.9C120.4,395.7,120.2,392.8,117.5,392.8z"/>
	<path d="M125,393.1l0-1.3h1.9v1.5c1-1.6,2.3-1.7,3.2-1.7c2.2,0,2.9,1.1,3.3,1.9c0.3-0.6,1.2-1.9,3.4-1.9c1.4,0,3.7,0.6,3.7,3.6v6.7
		h-1.9v-6.4c0-0.9-0.2-1.3-0.3-1.5c-0.3-0.5-1-0.9-1.9-0.9c-1.2,0-1.9,0.7-2.1,1.1c-0.4,0.6-0.4,1.7-0.4,2.2v5.6h-1.9v-6.6
		c0-1.2-0.7-2.2-2.2-2.2c-1.3,0-2,0.8-2.2,1.1c-0.4,0.6-0.4,1.4-0.4,2v5.7H125C125,401.8,125,393.1,125,393.1z"/>
	<path d="M143.7,387.4h2.3v2.1h-2.3V387.4z M143.9,391.7h1.9v10h-1.9V391.7z"/>
	<path d="M150.6,398.8c0,0.8,0.4,1.8,2.2,1.8c0.8,0,1.4-0.1,1.8-0.6c0.2-0.3,0.3-0.6,0.3-0.9c0-1-0.7-1.2-2.2-1.5
		c-2.1-0.5-3.9-0.9-3.9-3c0-1.8,1.6-3,3.9-3c1.3,0,3,0.4,3.6,1.6c0.3,0.6,0.3,1,0.3,1.5h-1.9c0.1-1.5-1.3-1.6-1.9-1.6
		c-0.3,0-2,0-2,1.4c0,0.9,0.9,1.1,1.4,1.3c2.8,0.7,3.4,0.8,4,1.4c0.6,0.5,0.8,1.2,0.8,1.9c0,1.1-0.6,2.1-1.4,2.5
		c-0.9,0.5-1.9,0.7-3,0.7c-2,0-3.9-0.8-3.9-3.3H150.6z"/>
	<path d="M160.6,398.8c0,0.8,0.4,1.8,2.2,1.8c0.8,0,1.4-0.1,1.8-0.6c0.2-0.3,0.3-0.6,0.3-0.9c0-1-0.7-1.2-2.2-1.5
		c-2.1-0.5-3.9-0.9-3.9-3c0-1.8,1.6-3,3.9-3c1.3,0,3,0.4,3.6,1.6c0.3,0.6,0.3,1,0.3,1.5h-1.9c0.1-1.5-1.3-1.6-1.9-1.6
		c-0.3,0-2,0-2,1.4c0,0.9,0.9,1.1,1.4,1.3c2.8,0.7,3.4,0.8,4,1.4c0.6,0.5,0.8,1.2,0.8,1.9c0,1.1-0.6,2.1-1.4,2.5
		c-0.9,0.5-1.9,0.7-3,0.7c-2,0-3.9-0.8-3.9-3.3H160.6z"/>
	<path d="M169.3,387.4h2.3v2.1h-2.3V387.4z M169.5,391.7h1.9v10h-1.9V391.7z"/>
	<path d="M179.4,391.5c4,0,4.9,3.2,4.9,5.3c0,2.9-1.7,5.4-5.1,5.4c-3.3,0-4.9-2.3-4.9-5.2C174.3,394.4,175.5,391.5,179.4,391.5z
		 M179.3,400.7c1.4,0,3-1,3-4c0-2.5-1.2-3.8-2.9-3.8c-1.2,0-3.1,0.8-3.1,3.9C176.3,398.8,177.1,400.7,179.3,400.7z"/>
	<path d="M187.3,392.9l0-1.2h1.9l0,1.6c0.2-0.4,0.9-1.8,3.2-1.8c0.9,0,3.6,0.3,3.6,3.4v6.8h-1.9v-6.4c0-0.7-0.1-1.3-0.5-1.7
		c-0.5-0.5-1.1-0.7-1.8-0.7c-1.4,0-2.6,1-2.6,3v5.8h-1.9V392.9z"/>
	<path d="M74.5,429.6c0,2-1.6,3.6-3.6,3.6c-2,0-3.6-1.6-3.6-3.6c0-2,1.6-3.6,3.6-3.6C72.9,425.9,74.5,427.6,74.5,429.6z"/>
	<path d="M87.2,422.3h5.2c0.7,0,2.3,0,3.3,0.7c1.1,0.7,1.6,1.8,1.6,2.9c0,1-0.4,1.9-1,2.6c-0.6,0.6-1.3,0.8-1.7,0.9
		c1.4,0.4,2,1,2.2,2.8c0.2,1.7,0.3,2.9,0.9,4.5h-2.1c-0.3-1-0.5-2.7-0.7-3.8c-0.2-2.1-0.7-2.7-3.2-2.7h-2.5v6.5h-2L87.2,422.3
		L87.2,422.3z M89.2,428.6h3.2c0.2,0,1.4,0,1.9-0.3c0.3-0.2,1-0.7,1-1.9c0-2.3-2.1-2.3-2.9-2.3h-3.2V428.6z"/>
	<path d="M101.3,432.1c0,2.1,0.8,3.6,2.9,3.6c1.2,0,2.2-0.6,2.4-2.1h1.9c-0.1,0.5-0.1,1.3-0.9,2.1c-0.4,0.5-1.4,1.3-3.5,1.3
		c-3.2,0-4.7-2-4.7-5.1c0-2,0.4-3.6,2-4.7c1-0.7,2.2-0.7,2.7-0.7c4.5,0,4.4,4,4.4,5.6H101.3z M106.6,430.8c0-1-0.2-3-2.5-3
		c-1.2,0-2.7,0.7-2.7,3H106.6z"/>
	<path d="M111.9,426.7l2.4,8l2.5-8h2.5l2.3,7.9l2.5-7.9h1.9l-3.5,10h-2.2l-2.4-8.3l-2.6,8.3h-2.2l-3.3-10H111.9z"/>
	<path d="M132.3,426.5c4,0,4.9,3.2,4.9,5.3c0,2.9-1.7,5.4-5.1,5.4c-3.3,0-4.9-2.3-4.9-5.2C127.2,429.4,128.4,426.5,132.3,426.5z
		 M132.2,435.7c1.4,0,3-1,3-4c0-2.5-1.2-3.8-2.9-3.8c-1.2,0-3.1,0.8-3.1,3.9C129.2,433.8,130.1,435.7,132.2,435.7z"/>
	<path d="M140.3,428.8c0-0.7,0-1.4-0.1-2h1.9l0,1.9c0.4-1.4,1.6-1.9,2.4-2c0.6-0.1,1-0.1,1.3,0v1.8c-0.1,0-0.2-0.1-0.4-0.1
		c-0.1,0-0.3,0-0.5,0c-2.2,0-2.7,1.3-2.7,3v5.3h-1.9V428.8z"/>
	<path d="M147.8,422.2h1.9v8.6l3.8-4.1h2.5l-4.2,4.3l4.5,5.8h-2.5l-4-5.4v5.4h-1.9V422.2z"/>
	<path d="M159.1,433.8c0,0.8,0.4,1.8,2.2,1.8c0.8,0,1.4-0.1,1.8-0.6c0.2-0.3,0.3-0.6,0.3-0.9c0-1-0.7-1.2-2.2-1.5
		c-2.1-0.5-3.9-0.9-3.9-3c0-1.8,1.6-3,3.9-3c1.3,0,3,0.4,3.6,1.6c0.3,0.6,0.3,1,0.3,1.5h-1.9c0.1-1.5-1.3-1.6-1.9-1.6
		c-0.3,0-2,0-2,1.4c0,0.9,0.9,1.1,1.4,1.3c2.8,0.7,3.4,0.8,4,1.4c0.6,0.5,0.8,1.2,0.8,1.9c0,1.1-0.6,2.1-1.4,2.5
		c-0.9,0.5-1.9,0.7-3,0.7c-2,0-3.9-0.8-3.9-3.3H159.1z"/>
	<path d="M74.5,464.6c0,2-1.6,3.6-3.6,3.6c-2,0-3.6-1.6-3.6-3.6c0-2,1.6-3.6,3.6-3.6C72.9,460.9,74.5,462.6,74.5,464.6z"/>
	<path d="M87.2,457.3h5.2c0.7,0,2.3,0,3.3,0.7c1.1,0.7,1.6,1.8,1.6,2.9c0,1-0.4,1.9-1,2.6c-0.6,0.6-1.3,0.8-1.7,0.9
		c1.4,0.4,2,1,2.2,2.8c0.2,1.7,0.3,2.9,0.9,4.5h-2.1c-0.3-1-0.5-2.7-0.7-3.8c-0.2-2.1-0.7-2.7-3.2-2.7h-2.5v6.5h-2L87.2,457.3
		L87.2,457.3z M89.2,463.6h3.2c0.2,0,1.4,0,1.9-0.3c0.3-0.2,1-0.7,1-1.9c0-2.3-2.1-2.3-2.9-2.3h-3.2V463.6z"/>
	<path d="M101.3,467.1c0,2.1,0.8,3.6,2.9,3.6c1.2,0,2.2-0.6,2.4-2.1h1.9c-0.1,0.5-0.1,1.3-0.9,2.1c-0.4,0.5-1.4,1.3-3.5,1.3
		c-3.2,0-4.7-2-4.7-5.1c0-2,0.4-3.6,2-4.7c1-0.7,2.2-0.7,2.7-0.7c4.5,0,4.4,4,4.4,5.6H101.3z M106.6,465.8c0-1-0.2-3-2.5-3
		c-1.2,0-2.7,0.7-2.7,3H106.6z"/>
	<path d="M116.3,458.7c-0.3,0-0.7,0-1.1,0c-1.5,0-1.5,0.8-1.5,1.5v1.6h2.3v1.4h-2.3v8.7h-1.9v-8.7h-2v-1.4h2v-1.1
		c0-1.4,0.1-1.9,0.4-2.4c0.4-0.7,1.3-1.1,2.5-1.1c0.5,0,1.1,0.1,1.5,0.1V458.7z M117.9,457.4h1.9v14.4h-1.9V457.4z"/>
	<path d="M124.7,467.1c0,2.1,0.8,3.6,2.9,3.6c1.2,0,2.2-0.6,2.4-2.1h1.9c-0.1,0.5-0.1,1.3-0.9,2.1c-0.4,0.5-1.4,1.3-3.5,1.3
		c-3.2,0-4.7-2-4.7-5.1c0-2,0.4-3.6,2-4.7c1-0.7,2.2-0.7,2.7-0.7c4.5,0,4.4,4,4.4,5.6C131.9,467.1,124.7,467.1,124.7,467.1z
		 M130,465.8c0-1-0.2-3-2.5-3c-1.2,0-2.7,0.7-2.7,3H130z"/>
	<path d="M140.4,465c0-0.5-0.2-2.1-2-2.1c-2.6,0-2.6,3-2.6,3.8c0,2.1,0.5,4,2.5,4c1.6,0,2.1-1.2,2.2-2.2h1.9c-0.1,2-1.6,3.6-4.1,3.6
		c-0.7,0-2.2-0.1-3.3-1.3c-0.6-0.7-1.2-1.8-1.2-3.8c0-4.2,2.6-5.4,4.6-5.4c0.7,0,2.2,0.1,3.1,1.2c0.7,0.9,0.8,1.7,0.8,2.2H140.4z"/>
	<path d="M143.1,461.7h1.8v-2.1l1.9-0.6v2.7h2.2v1.4h-2.2v6c0,0.5,0,1.3,1.3,1.3c0.4,0,0.7-0.1,0.9-0.1v1.5
		c-0.3,0.1-0.9,0.1-1.6,0.1c-1.7,0-2.5-0.5-2.5-2.1v-6.7h-1.8V461.7z"/>
	<path d="M151.1,457.4h2.3v2.1h-2.3V457.4z M151.3,461.7h1.9v10h-1.9V461.7z"/>
	<path d="M161.2,461.5c4,0,4.9,3.2,4.9,5.3c0,2.9-1.7,5.4-5.1,5.4c-3.3,0-4.9-2.3-4.9-5.2C156.1,464.4,157.3,461.5,161.2,461.5z
		 M161.1,470.7c1.4,0,3-1,3-4c0-2.5-1.2-3.8-2.9-3.8c-1.2,0-3.1,0.8-3.1,3.9C158.1,468.8,159,470.7,161.1,470.7z"/>
	<path d="M169.2,462.9l0-1.2h1.9l0,1.6c0.2-0.4,0.9-1.8,3.2-1.8c0.9,0,3.6,0.3,3.6,3.4v6.8H176v-6.4c0-0.7-0.1-1.3-0.5-1.7
		c-0.5-0.5-1.1-0.7-1.8-0.7c-1.4,0-2.6,1-2.6,3v5.8h-1.9V462.9z"/>
	<path d="M488.4,63.3c0-0.5,0-1.1-0.5-1.8c-0.7-1.2-2.1-1.3-2.9-1.3c-4.2,0-5.1,3.9-5.1,6.6c0,1.2,0.2,3.3,1.4,4.7
		c0.9,1,2,1.5,4.1,1.5c1.8,0,2.4-0.2,2.8-0.3V69H485v-2.9h7.1v8.7c-1.1,0.4-2.9,1-6.3,1c-4,0-6-1-7.4-2.3c-1.9-1.9-2.3-4.7-2.3-6.5
		c0-6.1,3.8-9.4,9.1-9.4c2.2,0,4.5,0.6,5.9,2.2c1.2,1.3,1.2,2.7,1.2,3.6H488.4z"/>
	<path d="M498.8,63.2v7.2c0,1.1,0,2.7,1.9,2.7c2.3,0,2.3-1.7,2.3-3.8v-6.1h3.6v8c0,2.6,0.1,2.9,0.1,3.2c0,0.3,0,0.6,0.1,0.9h-3.5
		l-0.1-1.6c-0.4,0.5-1.3,1.9-3.6,1.9c-1.6,0-3-0.7-3.6-1.6c-0.8-1-0.8-2.7-0.8-3.3v-7.5C495.2,63.2,498.8,63.2,498.8,63.2z"/>
	<path d="M509.9,58h3.8v3.1h-3.8V58z M510,63.2h3.6v12.1H510V63.2z"/>
	<path d="M524.7,58h3.6v15.4c0,0.7,0,1.5,0.1,2h-3.6l-0.1-1.8c-0.2,0.4-0.5,0.9-1.2,1.4c-0.9,0.6-1.8,0.6-2.4,0.6
		c-3.2,0-5.2-2.2-5.2-6c0-4,2.2-6.5,5.4-6.5c2.2,0,3.1,1.2,3.4,1.7C524.7,64.7,524.7,58,524.7,58z M522,73.3c1,0,1.9-0.6,2.3-1.4
		c0.5-1,0.6-2.3,0.6-2.9c0-2.4-1-3.7-2.6-3.7c-2.4,0-2.6,2.9-2.6,4.1C519.6,71.5,520.2,73.3,522,73.3z"/>
	<path d="M534.2,70.2c0,0.8,0,3.2,2.5,3.2c0.9,0,1.8-0.3,2.1-1.7h3.2c0,0.6-0.2,1.6-1.2,2.6c-0.9,0.9-2.5,1.4-4.2,1.4
		c-1,0-3-0.2-4.3-1.5c-1.1-1.2-1.6-2.8-1.6-4.7c0-2,0.5-4.3,2.5-5.7c0.9-0.6,2.1-1,3.4-1c1.7,0,3.8,0.7,4.9,2.9
		c0.8,1.7,0.8,3.4,0.7,4.4C542.4,70.2,534.2,70.2,534.2,70.2z M538.7,68c0-0.6,0-2.7-2.1-2.7c-1.6,0-2.2,1.3-2.3,2.7H538.7z"/>
	<path d="M552.7,58h3.6v15.4c0,0.7,0,1.5,0.1,2h-3.6l-0.1-1.8c-0.2,0.4-0.5,0.9-1.2,1.4c-0.9,0.6-1.8,0.6-2.4,0.6
		c-3.2,0-5.2-2.2-5.2-6c0-4,2.2-6.5,5.4-6.5c2.2,0,3.1,1.2,3.4,1.7C552.7,64.7,552.7,58,552.7,58z M550,73.3c1,0,1.9-0.6,2.3-1.4
		c0.5-1,0.6-2.3,0.6-2.9c0-2.4-1-3.7-2.6-3.7c-2.4,0-2.6,2.9-2.6,4.1C547.6,71.5,548.2,73.3,550,73.3z"/>
	<path d="M566.1,58h3.8v14.4h7.4v3h-11.2C566.1,75.4,566.1,58,566.1,58z"/>
	<path d="M582.2,70.2c0,0.8,0,3.2,2.5,3.2c0.9,0,1.8-0.3,2.1-1.7h3.2c0,0.6-0.2,1.6-1.2,2.6c-0.9,0.9-2.5,1.4-4.2,1.4
		c-1,0-3-0.2-4.3-1.5c-1.1-1.2-1.6-2.8-1.6-4.7c0-2,0.5-4.3,2.5-5.7c0.9-0.6,2.1-1,3.4-1c1.7,0,3.8,0.7,4.9,2.9
		c0.8,1.7,0.8,3.4,0.7,4.4C590.4,70.2,582.2,70.2,582.2,70.2z M586.8,68c0-0.6,0-2.7-2.1-2.7c-1.6,0-2.2,1.3-2.3,2.7H586.8z"/>
	<path d="M600,75.4c-0.1-0.7-0.1-1.3-0.1-1.7c-1.3,1.9-3,1.9-3.6,1.9c-1.8,0-2.5-0.5-3-1c-0.7-0.7-1.1-1.7-1.1-2.7s0.3-2.7,2.6-3.8
		c1.5-0.7,3.6-0.7,4.8-0.7c0-0.8,0-1.2-0.2-1.6c-0.3-0.9-1.2-1-1.6-1c-0.5,0-1,0.2-1.3,0.7c-0.3,0.4-0.3,0.8-0.3,1.1h-3.5
		c0-0.6,0.1-1.9,1.4-2.9c1.1-0.8,2.5-1,3.7-1c1,0,3.1,0.2,4.3,1.6c0.8,1,0.8,2.4,0.8,3l0,4.9c0,1,0.1,2.1,0.3,3.1L600,75.4L600,75.4
		z M595.6,71.6c0,0.8,0.6,1.7,1.7,1.7c0.6,0,1.2-0.3,1.5-0.7c0.6-0.8,0.7-1.7,0.7-3C597.3,69.5,595.6,70.2,595.6,71.6z"/>
	<path d="M606.1,66.2c0-0.6-0.1-2.3-0.2-3h3.3l0.1,2.3c0.5-1,1.2-2.5,4.1-2.4v3.2c-3.6-0.3-3.8,1.5-3.8,3v6h-3.6
		C606.1,75.4,606.1,66.2,606.1,66.2z"/>
	<path d="M614.5,65.4c0,0,0-1.4-0.1-2.2h3.4l0.1,1.8c0.3-0.6,1.3-2.1,3.9-2.1c2.4,0,3.4,1.4,3.7,2.3c0.3,0.7,0.3,1.4,0.3,3.6v6.6
		h-3.6v-7.5c0-0.5,0-0.9-0.2-1.3c-0.3-0.5-0.8-1-1.7-1c-0.8,0-1.5,0.4-1.8,0.9c-0.2,0.3-0.4,0.9-0.4,1.8v7.1h-3.6V65.4L614.5,65.4z"
		/>
	<path d="M629,58h3.8v3.1H629V58z M629.1,63.2h3.6v12.1h-3.6V63.2z"/>
	<path d="M635.8,65.4c0,0,0-1.4-0.1-2.2h3.4l0.1,1.8c0.3-0.6,1.3-2.1,3.9-2.1c2.4,0,3.4,1.4,3.7,2.3c0.3,0.7,0.3,1.4,0.3,3.6v6.6
		h-3.6v-7.5c0-0.5,0-0.9-0.2-1.3c-0.3-0.5-0.8-1-1.7-1c-0.8,0-1.5,0.4-1.8,0.9c-0.2,0.3-0.4,0.9-0.4,1.8v7.1h-3.6V65.4L635.8,65.4z"
		/>
	<path d="M661.9,63.3c-0.1,1-0.2,1.8-0.2,3v9c0,4.5-3.7,4.9-6,4.9c-1.7,0-5.1-0.2-5.3-3.9h3.4c0,0.4,0.2,1.7,2.1,1.7
		c1.1,0,2-0.5,2.2-1.6c0.1-0.6,0.1-1,0.2-2.9c-1.1,1.5-2.4,1.7-3.3,1.7c-3.5,0-5.1-3-5.1-6c0-3.1,1.7-6,5.2-6c2.2,0,3,1.2,3.4,1.7
		l0.1-1.6L661.9,63.3L661.9,63.3z M655.9,72.7c2.5,0,2.5-2.9,2.5-3.5c0-1.4-0.3-3.7-2.4-3.7c-1.3,0-2.4,1-2.4,3.6
		C653.5,69.8,653.5,72.7,655.9,72.7z"/>
	<path d="M676.8,57.2c-0.8,2.4-2.1,6.3-2.1,10.6c0,3.2,0.7,5.6,2.1,10.5h-2.6c-1.4-3.3-2.4-6.8-2.4-10.4c0-3.7,1.1-7.3,2.4-10.7
		C674.2,57.2,676.8,57.2,676.8,57.2z"/>
	<path d="M678.8,72l4.3-4c0.8-0.7,1.6-1.5,2.5-2.5c0.9-1.1,1.2-1.7,1.2-2.4c0-1.3-0.7-2.1-2-2.1c-1.9,0-2.1,2-2.1,2.4h-3.7
		c0-0.7,0-1.9,1-3.1c1-1.2,2.7-1.8,4.8-1.8c3.6,0,5.7,2,5.7,4.6c0,1.7-0.7,4-7.9,9.8c2.4,0,2.7-0.1,4.6-0.1c2.6,0,2.9,0,3.4-0.1v2.8
		h-11.8V72L678.8,72z"/>
	<path d="M698.3,58.4c2.4,0,3.7,1.3,4.4,2.2c0.9,1.3,1.5,2.9,1.5,6c0,3.9-0.9,9-5.9,9c-4.3,0-5.8-4.1-5.8-8.6
		C692.5,64.8,692.9,58.4,698.3,58.4z M700.2,63.1c-0.1-0.5-0.5-1.9-1.8-1.9c-1,0-1.5,0.9-1.7,1.4c-0.6,1.7-0.6,4.3-0.6,4.7
		c0,2.9,0.4,5.5,2.2,5.5c1.9,0,2.2-3.3,2.2-5.6C700.6,66.2,700.5,64.2,700.2,63.1L700.2,63.1z"/>
	<path d="M710.1,57.1c3.3,0,3.9,2.1,3.9,4.4c0,1.2,0,4.8-4.1,4.8c-2.8,0-3.8-2-3.8-4.6C706.1,60.5,706.1,57.1,710.1,57.1z M710,64.3
		c0.8,0,1.4-0.5,1.4-2.8c0-1-0.1-2.5-1.3-2.5c-1.4,0-1.4,1.9-1.4,2.7C708.7,63.5,709,64.3,710,64.3z M720.9,56.9l-9.1,18.7H710
		l9.1-18.7C719.1,56.9,720.9,56.9,720.9,56.9z M721.2,66.4c3.3,0,3.9,2.1,3.9,4.4c0,1.2,0,4.8-4.1,4.8c-2.8,0-3.8-2-3.8-4.6
		C717.1,69.8,717.1,66.4,721.2,66.4z M721.1,73.6c0.8,0,1.4-0.5,1.4-2.8c0-1-0.1-2.5-1.3-2.5c-1.4,0-1.4,1.9-1.4,2.7
		C719.7,72.7,720,73.6,721.1,73.6z"/>
	<path d="M727.7,78.3c0.8-2.4,2.1-6.3,2.1-10.6c0-3.2-0.7-5.6-2.1-10.5h2.6c1.4,3.3,2.4,6.8,2.4,10.4c0,3.7-1.1,7.3-2.4,10.7
		L727.7,78.3L727.7,78.3z"/>
	<path d="M482.3,103.1c0,2-1.6,3.6-3.6,3.6s-3.6-1.6-3.6-3.6c0-2,1.6-3.6,3.6-3.6S482.3,101.1,482.3,103.1z"/>
	<path d="M498.5,95.9h2.1l5.8,14.4h-2.2l-1.6-3.8h-6.7l-1.6,3.8h-2.1L498.5,95.9z M496.7,105h5.5l-2.7-7.1L496.7,105z"/>
	<path d="M506.9,100.3h1.8v-2.1l1.9-0.6v2.7h2.2v1.4h-2.2v6c0,0.5,0,1.3,1.3,1.3c0.4,0,0.7-0.1,0.9-0.1v1.5
		c-0.3,0.1-0.9,0.1-1.6,0.1c-1.7,0-2.5-0.5-2.5-2.1v-6.7h-1.8V100.3L506.9,100.3z"/>
	<path d="M513.1,100.3h1.8v-2.1l1.9-0.6v2.7h2.2v1.4h-2.2v6c0,0.5,0,1.3,1.3,1.3c0.4,0,0.7-0.1,0.9-0.1v1.5
		c-0.3,0.1-0.9,0.1-1.6,0.1c-1.7,0-2.5-0.5-2.5-2.1v-6.7h-1.8V100.3L513.1,100.3z"/>
	<path d="M522.4,105.7c0,2.1,0.8,3.6,2.9,3.6c1.2,0,2.2-0.6,2.4-2.1h1.9c-0.1,0.5-0.1,1.3-0.9,2.1c-0.4,0.5-1.4,1.3-3.5,1.3
		c-3.2,0-4.7-2-4.7-5.1c0-2,0.4-3.6,2-4.7c1-0.7,2.2-0.7,2.7-0.7c4.5,0,4.4,4,4.4,5.6L522.4,105.7L522.4,105.7z M527.7,104.4
		c0-1-0.2-3-2.5-3c-1.2,0-2.7,0.7-2.7,3H527.7z"/>
	<path d="M532.5,101.5l0-1.2h1.9l0,1.6c0.2-0.4,0.9-1.8,3.2-1.8c0.9,0,3.6,0.3,3.6,3.4v6.8h-1.9V104c0-0.7-0.1-1.3-0.5-1.7
		c-0.5-0.5-1.1-0.7-1.8-0.7c-1.4,0-2.6,1-2.6,3v5.8h-1.9V101.5z"/>
	<path d="M551.6,95.9h1.9v12.8c0,0.2,0,1.1,0.1,1.6h-1.9l0-1.6c-0.2,0.3-0.4,0.7-0.9,1.1c-0.8,0.6-1.8,0.7-2.5,0.7
		c-1.3,0-4.3-0.7-4.3-5.1c0-3.8,2.2-5.5,4.5-5.5c2.2,0,2.9,1.3,3.1,1.7C551.6,101.7,551.6,95.9,551.6,95.9z M550.9,102.4
		c-0.4-0.5-1.1-1-2.2-1c-2.8,0-2.8,3.3-2.8,4c0,1.8,0.5,3.8,2.8,3.8c3,0,3-3.3,3-4C551.6,103.7,551.3,102.9,550.9,102.4z"/>
	<path d="M563,110.4c-0.1-0.5-0.2-1-0.2-1.5c-0.9,1.7-2.3,1.8-3.1,1.8c-2.3,0-3.5-1.3-3.5-3c0-0.8,0.3-2.1,1.8-2.9
		c1.1-0.6,2.7-0.7,3.5-0.7c0.5,0,0.8,0,1.4,0.1c0-1.2,0-1.8-0.4-2.2c-0.4-0.5-1.2-0.7-1.7-0.7c-1.9,0-2,1.3-2,1.7h-1.9
		c0.1-0.5,0.1-1.2,0.7-1.9c0.8-0.8,2.2-1.1,3.2-1.1c1.5,0,3,0.5,3.6,1.5c0.3,0.6,0.3,1.1,0.3,1.5l-0.1,4.8c0,0.2,0,1.5,0.2,2.5
		L563,110.4L563,110.4z M561.7,105.4c-0.8,0-3.6,0-3.6,2c0,0.6,0.4,1.7,2.1,1.7c1,0,1.7-0.4,2.1-1.1c0.4-0.7,0.4-1.2,0.5-2.6
		C562.4,105.4,562.1,105.4,561.7,105.4z"/>
	<path d="M568,101.5l0-1.2h1.9l0,1.6c0.2-0.4,0.9-1.8,3.2-1.8c0.9,0,3.6,0.3,3.6,3.4v6.8h-1.9V104c0-0.7-0.1-1.3-0.5-1.7
		c-0.5-0.5-1.1-0.7-1.8-0.7c-1.4,0-2.6,1-2.6,3v5.8H568V101.5z"/>
	<path d="M585.9,103.5c0-0.5-0.2-2.1-2-2.1c-2.6,0-2.6,3-2.6,3.8c0,2.1,0.5,4,2.5,4c1.6,0,2.1-1.2,2.2-2.2h1.9
		c-0.1,2-1.6,3.6-4.1,3.6c-0.7,0-2.2-0.1-3.3-1.3c-0.6-0.7-1.2-1.8-1.2-3.8c0-4.2,2.6-5.4,4.6-5.4c0.7,0,2.2,0.1,3.1,1.2
		c0.7,0.9,0.8,1.7,0.8,2.2H585.9z"/>
	<path d="M591.3,105.7c0,2.1,0.8,3.6,2.9,3.6c1.2,0,2.2-0.6,2.4-2.1h1.9c-0.1,0.5-0.1,1.3-0.9,2.1c-0.4,0.5-1.4,1.3-3.5,1.3
		c-3.2,0-4.7-2-4.7-5.1c0-2,0.4-3.6,2-4.7c1-0.7,2.2-0.7,2.7-0.7c4.5,0,4.4,4,4.4,5.6L591.3,105.7L591.3,105.7z M596.6,104.4
		c0-1-0.2-3-2.5-3c-1.2,0-2.7,0.7-2.7,3H596.6z"/>
	<path d="M482.3,138.1c0,2-1.6,3.6-3.6,3.6s-3.6-1.6-3.6-3.6c0-2,1.6-3.6,3.6-3.6S482.3,136.1,482.3,138.1z"/>
	<path d="M495,130.9h4.8c1.8,0,3,0.1,3.9,1.2c0.7,0.7,1.1,1.7,1.1,2.8c0,1.1-0.4,2-1.1,2.8c-0.8,0.8-1.8,1.2-4.4,1.2H497v6.4h-2
		V130.9z M497,137.3h2.4c1.3,0,3.3-0.1,3.3-2.5c0-2.3-1.9-2.3-2.9-2.3H497V137.3z"/>
	<path d="M512.8,145.4c-0.1-0.5-0.2-1-0.2-1.5c-0.9,1.7-2.3,1.8-3.1,1.8c-2.3,0-3.5-1.3-3.5-3c0-0.8,0.3-2.1,1.8-2.9
		c1.1-0.6,2.7-0.7,3.5-0.7c0.5,0,0.8,0,1.4,0.1c0-1.2,0-1.8-0.4-2.2c-0.4-0.5-1.2-0.7-1.7-0.7c-1.9,0-2,1.3-2,1.7h-1.9
		c0.1-0.5,0.1-1.2,0.7-1.9c0.8-0.8,2.2-1.1,3.2-1.1c1.5,0,3,0.5,3.6,1.5c0.3,0.6,0.3,1.1,0.3,1.5l-0.1,4.8c0,0.2,0,1.5,0.2,2.5
		H512.8z M511.5,140.4c-0.8,0-3.6,0-3.6,2c0,0.6,0.4,1.7,2.1,1.7c1,0,1.7-0.4,2.1-1.1c0.4-0.7,0.4-1.2,0.5-2.6
		C512.2,140.4,511.9,140.4,511.5,140.4z"/>
	<path d="M517.9,137.4c0-0.7,0-1.4-0.1-2h1.9l0,1.9c0.4-1.4,1.6-1.9,2.4-2c0.6-0.1,1-0.1,1.3,0v1.8c-0.1,0-0.2-0.1-0.4-0.1
		c-0.1,0-0.3,0-0.5,0c-2.2,0-2.7,1.3-2.7,3v5.3h-1.9V137.4z"/>
	<path d="M523.5,135.3h1.8v-2.1l1.9-0.6v2.7h2.2v1.4h-2.2v6c0,0.5,0,1.3,1.3,1.3c0.4,0,0.7-0.1,0.9-0.1v1.5
		c-0.3,0.1-0.9,0.1-1.6,0.1c-1.7,0-2.5-0.5-2.5-2.1v-6.7h-1.8V135.3z"/>
	<path d="M531.5,131h2.3v2.1h-2.3V131z M531.7,135.3h1.9v10h-1.9V135.3z"/>
	<path d="M543,138.5c0-0.5-0.2-2.1-2-2.1c-2.6,0-2.6,3-2.6,3.8c0,2.1,0.5,4,2.5,4c1.6,0,2.1-1.2,2.2-2.2h1.9c-0.1,2-1.6,3.6-4.1,3.6
		c-0.7,0-2.2-0.1-3.3-1.3c-0.6-0.7-1.2-1.8-1.2-3.8c0-4.2,2.6-5.4,4.6-5.4c0.7,0,2.2,0.1,3.1,1.2c0.7,0.9,0.8,1.7,0.8,2.2H543z"/>
	<path d="M547.1,131h2.3v2.1h-2.3V131z M547.3,135.3h1.9v10h-1.9V135.3z"/>
	<path d="M552.8,137c0-0.4,0-0.7-0.1-1.6h1.9l0,1.7c0.9-1.6,2.6-1.8,3.4-1.8c2.2,0,4.2,1.5,4.2,5.2c0,3.7-2.2,5.4-4.6,5.4
		c-1.5,0-2.5-0.6-3.1-1.5v5h-1.9V137z M557.4,144.4c0.5,0,1.5-0.1,2.1-1c0.7-1,0.8-2.4,0.8-3.1c0-1.8-0.5-3.7-2.8-3.7
		c-3,0-3,3.2-3,4.1C554.6,141.9,554.7,144.4,557.4,144.4z"/>
	<path d="M571.2,145.4c-0.1-0.5-0.2-1-0.2-1.5c-0.9,1.7-2.3,1.8-3.1,1.8c-2.3,0-3.5-1.3-3.5-3c0-0.8,0.3-2.1,1.8-2.9
		c1.1-0.6,2.7-0.7,3.5-0.7c0.5,0,0.8,0,1.4,0.1c0-1.2,0-1.8-0.4-2.2c-0.4-0.5-1.2-0.7-1.7-0.7c-1.9,0-2,1.3-2,1.7h-1.9
		c0.1-0.5,0.1-1.2,0.7-1.9c0.8-0.8,2.2-1.1,3.2-1.1c1.5,0,3,0.5,3.6,1.5c0.3,0.6,0.3,1.1,0.3,1.5l-0.1,4.8c0,0.2,0,1.5,0.2,2.5
		H571.2z M569.9,140.4c-0.8,0-3.6,0-3.6,2c0,0.6,0.4,1.7,2.1,1.7c1,0,1.7-0.4,2.1-1.1c0.4-0.7,0.4-1.2,0.5-2.6
		C570.6,140.4,570.3,140.4,569.9,140.4z"/>
	<path d="M574.6,135.3h1.8v-2.1l1.9-0.6v2.7h2.2v1.4h-2.2v6c0,0.5,0,1.3,1.3,1.3c0.4,0,0.7-0.1,0.9-0.1v1.5
		c-0.3,0.1-0.9,0.1-1.6,0.1c-1.7,0-2.5-0.5-2.5-2.1v-6.7h-1.8V135.3z"/>
	<path d="M582.6,131h2.3v2.1h-2.3V131z M582.8,135.3h1.9v10h-1.9V135.3z"/>
	<path d="M592.7,135.1c4,0,4.9,3.2,4.9,5.3c0,2.9-1.7,5.4-5.1,5.4c-3.3,0-4.9-2.3-4.9-5.2C587.6,138,588.8,135.1,592.7,135.1z
		 M592.6,144.3c1.4,0,3-1,3-4c0-2.5-1.2-3.8-2.9-3.8c-1.2,0-3.1,0.8-3.1,3.9C589.6,142.4,590.5,144.3,592.6,144.3z"/>
	<path d="M600.7,136.5l0-1.2h1.9l0,1.6c0.2-0.4,0.9-1.8,3.2-1.8c0.9,0,3.6,0.3,3.6,3.4v6.8h-1.9V139c0-0.7-0.1-1.3-0.5-1.7
		c-0.5-0.5-1.1-0.7-1.8-0.7c-1.4,0-2.6,1-2.6,3v5.8h-1.9V136.5z"/>
	<path d="M482.3,173.1c0,2-1.6,3.6-3.6,3.6s-3.6-1.6-3.6-3.6c0-2,1.6-3.6,3.6-3.6S482.3,171.1,482.3,173.1z"/>
	<path d="M496.5,176.1c0,1,0.2,2.9,3.5,2.9c3,0,3.4-1.9,3.4-2.6c0-1.6-1.3-1.9-3.3-2.4c-2.2-0.5-3.2-0.8-3.9-1.3
		c-1.2-0.8-1.5-1.9-1.5-2.8c0-2.9,2.8-4.2,5.5-4.2c1,0,2.9,0.2,4.1,1.4c0.8,0.9,0.8,1.9,0.9,2.5h-2.1c-0.1-1.8-1.6-2.2-3-2.2
		c-2,0-3.2,0.9-3.2,2.3c0,1.3,0.8,1.7,2.6,2.1c3.4,0.9,3.8,1,4.7,1.5c1.3,0.9,1.4,2.3,1.4,2.9c0,2.6-2,4.5-5.7,4.5
		c-1.1,0-3.3-0.2-4.5-1.6c-0.8-1.1-0.8-2.2-0.8-2.9H496.5z"/>
	<path d="M513.7,173.5c0-0.5-0.2-2.1-2-2.1c-2.6,0-2.6,3-2.6,3.8c0,2.1,0.5,4,2.5,4c1.6,0,2.1-1.2,2.2-2.2h1.9
		c-0.1,2-1.6,3.6-4.1,3.6c-0.7,0-2.2-0.1-3.3-1.3c-0.6-0.7-1.2-1.8-1.2-3.8c0-4.2,2.6-5.4,4.6-5.4c0.7,0,2.2,0.1,3.1,1.2
		c0.7,0.9,0.8,1.7,0.8,2.2H513.7z"/>
	<path d="M518.1,172.4c0-0.7,0-1.4-0.1-2h1.9l0,1.9c0.4-1.4,1.6-1.9,2.4-2c0.6-0.1,1-0.1,1.3,0v1.8c-0.1,0-0.2-0.1-0.4-0.1
		c-0.1,0-0.3,0-0.5,0c-2.2,0-2.7,1.3-2.7,3v5.3h-1.9V172.4z"/>
	<path d="M531.9,180.4c-0.1-0.5-0.2-1-0.2-1.5c-0.9,1.7-2.3,1.8-3.1,1.8c-2.3,0-3.5-1.3-3.5-3c0-0.8,0.3-2.1,1.8-2.9
		c1.1-0.6,2.7-0.7,3.5-0.7c0.5,0,0.8,0,1.4,0.1c0-1.2,0-1.8-0.4-2.2c-0.4-0.5-1.2-0.7-1.7-0.7c-1.9,0-2,1.3-2,1.7h-1.9
		c0.1-0.5,0.1-1.2,0.7-1.9c0.8-0.8,2.2-1.1,3.2-1.1c1.5,0,3,0.5,3.6,1.5c0.3,0.6,0.3,1.1,0.3,1.5l-0.1,4.8c0,0.2,0,1.5,0.2,2.5
		H531.9z M530.6,175.4c-0.8,0-3.6,0-3.6,2c0,0.6,0.4,1.7,2.1,1.7c1,0,1.7-0.4,2.1-1.1c0.4-0.7,0.4-1.2,0.5-2.6
		C531.3,175.4,531,175.4,530.6,175.4z"/>
	<path d="M535.3,170.3h1.8v-2.1l1.9-0.6v2.7h2.2v1.4H539v6c0,0.5,0,1.3,1.3,1.3c0.4,0,0.7-0.1,0.9-0.1v1.5c-0.3,0.1-0.9,0.1-1.6,0.1
		c-1.7,0-2.5-0.5-2.5-2.1v-6.7h-1.8V170.3z"/>
	<path d="M549.2,173.5c0-0.5-0.2-2.1-2-2.1c-2.6,0-2.6,3-2.6,3.8c0,2.1,0.5,4,2.5,4c1.6,0,2.1-1.2,2.2-2.2h1.9
		c-0.1,2-1.6,3.6-4.1,3.6c-0.7,0-2.2-0.1-3.3-1.3c-0.6-0.7-1.2-1.8-1.2-3.8c0-4.2,2.6-5.4,4.6-5.4c0.7,0,2.2,0.1,3.1,1.2
		c0.7,0.9,0.8,1.7,0.8,2.2H549.2z"/>
	<path d="M552.5,165.9h1.9v5.9c0.6-1.1,1.9-1.7,3.3-1.7c1.1,0,2.6,0.4,3.2,1.6c0.2,0.4,0.3,0.9,0.3,2.3v6.3h-1.9v-5.9
		c0-0.9,0-2.8-2.2-2.8c-1.4,0-2.1,0.9-2.4,1.3c-0.3,0.6-0.3,1.5-0.3,2.1v5.3h-1.9V165.9z"/>
	<path d="M564.7,172c0-0.4,0-0.7-0.1-1.6h1.9l0,1.7c0.9-1.6,2.6-1.8,3.4-1.8c2.2,0,4.2,1.5,4.2,5.2c0,3.7-2.2,5.4-4.6,5.4
		c-1.5,0-2.5-0.6-3.1-1.5v5h-1.9V172z M569.3,179.4c0.5,0,1.5-0.1,2.1-1c0.7-1,0.8-2.4,0.8-3.1c0-1.8-0.5-3.7-2.8-3.7
		c-3,0-3,3.2-3,4.1C566.5,176.9,566.7,179.4,569.3,179.4z"/>
	<path d="M583.1,180.4c-0.1-0.5-0.2-1-0.2-1.5c-0.9,1.7-2.3,1.8-3.1,1.8c-2.3,0-3.5-1.3-3.5-3c0-0.8,0.3-2.1,1.8-2.9
		c1.1-0.6,2.7-0.7,3.5-0.7c0.5,0,0.8,0,1.4,0.1c0-1.2,0-1.8-0.4-2.2c-0.4-0.5-1.2-0.7-1.7-0.7c-1.9,0-2,1.3-2,1.7h-1.9
		c0.1-0.5,0.1-1.2,0.7-1.9c0.8-0.8,2.2-1.1,3.2-1.1c1.5,0,3,0.5,3.6,1.5c0.3,0.6,0.3,1.1,0.3,1.5l-0.1,4.8c0,0.2,0,1.5,0.2,2.5
		H583.1z M581.8,175.4c-0.8,0-3.6,0-3.6,2c0,0.6,0.4,1.7,2.1,1.7c1,0,1.7-0.4,2.1-1.1c0.4-0.7,0.4-1.2,0.5-2.6
		C582.5,175.4,582.2,175.4,581.8,175.4z"/>
	<path d="M595,165.9h1.9v12.8c0,0.2,0,1.1,0.1,1.6h-1.9l0-1.6c-0.2,0.3-0.4,0.7-0.9,1.1c-0.8,0.6-1.8,0.7-2.5,0.7
		c-1.3,0-4.3-0.7-4.3-5.1c0-3.8,2.2-5.5,4.5-5.5c2.2,0,2.9,1.3,3.1,1.7V165.9z M594.3,172.4c-0.4-0.5-1.1-1-2.2-1
		c-2.8,0-2.8,3.3-2.8,4c0,1.8,0.5,3.8,2.8,3.8c3,0,3-3.3,3-4C595.1,173.7,594.8,172.9,594.3,172.4z"/>
	<path d="M55.8,56.9c-0.1-0.6-0.3-3-2.8-3c-2.8,0-3.9,2.9-3.9,6.5c0,1,0,6,3.6,6c1.6,0,3-1,3.1-3.3h3.9c-0.1,1-0.2,2.6-1.6,4.1
		c-1.5,1.6-3.5,1.9-5.1,1.9c-6,0-7.9-4.4-7.9-8.7c0-5.5,3.1-9.1,7.9-9.1c3.8,0,6.5,2.3,6.5,5.8C59.6,56.9,55.8,56.9,55.8,56.9z"/>
	<path d="M67.7,56.2c4.4,0,6.3,3,6.3,6.4c0,3.4-2,6.5-6.4,6.5c-3.5,0-6.2-2.1-6.2-6.4C61.4,59.7,62.9,56.2,67.7,56.2z M67.7,66.6
		c1.6,0,2.6-0.9,2.6-4.2c0-1.6-0.3-3.8-2.7-3.8c-2.6,0-2.6,3-2.6,4.1C65.1,65.4,66,66.6,67.7,66.6z"/>
	<path d="M76.7,58.6c0,0,0-1.4-0.1-2.2H80l0.1,1.8c0.3-0.6,1.3-2.1,3.9-2.1c2.4,0,3.4,1.4,3.7,2.3c0.3,0.7,0.3,1.4,0.3,3.6v6.6h-3.6
		v-7.5c0-0.5,0-0.9-0.2-1.3c-0.3-0.5-0.8-1-1.7-1c-0.8,0-1.5,0.4-1.8,0.9c-0.2,0.3-0.4,0.9-0.4,1.8v7.1h-3.6L76.7,58.6L76.7,58.6z"
		/>
	<path d="M97.7,60.8c0-0.4-0.2-2.2-1.6-2.2c-1.7,0-1.9,2.5-1.9,3.9c0,0.7,0.1,2.8,0.9,3.7c0.3,0.4,0.7,0.4,1,0.4
		c0.4,0,1.5-0.2,1.6-2.3h3.5c0,0.9-0.2,2.4-1.6,3.6c-0.9,0.7-1.9,1.1-3.5,1.1c-1.6,0-3-0.4-4.1-1.6c-1.1-1.2-1.5-2.8-1.5-4.8
		c0-5.5,4.1-6.3,5.7-6.3c2.3,0,4.9,1.2,4.9,4.5L97.7,60.8L97.7,60.8z"/>
	<path d="M106.2,63.4c0,0.8,0,3.2,2.5,3.2c0.9,0,1.8-0.3,2.1-1.7h3.2c0,0.6-0.2,1.6-1.2,2.6c-0.9,0.9-2.5,1.4-4.2,1.4
		c-1,0-3-0.2-4.3-1.5c-1.1-1.2-1.6-2.8-1.6-4.7c0-2,0.5-4.3,2.5-5.7c0.9-0.6,2.1-1,3.4-1c1.7,0,3.8,0.7,4.9,2.9
		c0.8,1.7,0.8,3.4,0.7,4.4L106.2,63.4L106.2,63.4z M110.7,61.2c0-0.6,0-2.7-2.1-2.7c-1.6,0-2.2,1.3-2.3,2.7H110.7z"/>
	<path d="M120,56.5l0.1,1.7c1.1-1.9,3.1-2,3.7-2c3.1,0,5,2.4,5,6c0,3.4-1.8,6.5-5.3,6.5c-2.2,0-3.1-1.2-3.4-1.6v6h-3.6V56.5
		L120,56.5L120,56.5z M125.2,62.4c0-1.4-0.4-3.9-2.4-3.9c-1.2,0-2.8,0.9-2.8,4.1c0,0.7,0,3.8,2.6,3.8
		C124.3,66.4,125.2,64.8,125.2,62.4z"/>
	<path d="M138.4,68.4c-1.2,0.3-2.2,0.4-2.8,0.4c-3.6,0-3.6-2.3-3.6-3.3v-6.6h-2.3v-2.4h2.3v-2.4l3.5-1.3v3.7h2.9v2.4h-2.9v5.5
		c0,1.1,0,1.8,1.6,1.8c0.5,0,0.8,0,1.2-0.1C138.4,66.1,138.4,68.4,138.4,68.4z"/>
	<path d="M143.8,56.5v7.2c0,1.1,0,2.7,1.9,2.7c2.3,0,2.3-1.7,2.3-3.8v-6.1h3.6v8c0,2.6,0.1,2.9,0.1,3.2c0,0.3,0,0.6,0.1,0.9h-3.5
		l-0.1-1.6c-0.4,0.5-1.3,1.9-3.6,1.9c-1.6,0-3-0.7-3.6-1.6c-0.8-1-0.8-2.7-0.8-3.3v-7.5C140.2,56.5,143.8,56.5,143.8,56.5z"/>
	<path d="M162.2,68.6c-0.1-0.7-0.1-1.3-0.1-1.7c-1.3,1.9-3,1.9-3.6,1.9c-1.8,0-2.5-0.5-3-1c-0.7-0.7-1.1-1.7-1.1-2.7
		s0.3-2.7,2.6-3.8c1.5-0.7,3.6-0.7,4.8-0.7c0-0.8,0-1.2-0.2-1.6c-0.3-0.9-1.2-1-1.6-1c-0.5,0-1,0.2-1.3,0.7
		c-0.3,0.4-0.3,0.8-0.3,1.1h-3.5c0-0.6,0.1-1.9,1.4-2.9c1.1-0.8,2.5-1,3.7-1c1,0,3.1,0.2,4.3,1.6c0.8,1,0.8,2.4,0.8,3l0,4.9
		c0,1,0.1,2.1,0.3,3.1L162.2,68.6L162.2,68.6z M157.8,64.9c0,0.8,0.6,1.7,1.7,1.7c0.6,0,1.2-0.3,1.5-0.7c0.6-0.8,0.7-1.7,0.7-3
		C159.5,62.7,157.8,63.4,157.8,64.9z"/>
	<path d="M168.3,51.3h3.6v17.4h-3.6V51.3z"/>
	<path d="M181.7,51.3h3.8v14.4h7.4v3h-11.2C181.7,68.6,181.7,51.3,181.7,51.3z"/>
	<path d="M197.8,63.4c0,0.8,0,3.2,2.5,3.2c0.9,0,1.8-0.3,2.1-1.7h3.2c0,0.6-0.2,1.6-1.2,2.6c-0.9,0.9-2.5,1.4-4.2,1.4
		c-1,0-3-0.2-4.3-1.5c-1.1-1.2-1.6-2.8-1.6-4.7c0-2,0.5-4.3,2.5-5.7c0.9-0.6,2.1-1,3.4-1c1.7,0,3.8,0.7,4.9,2.9
		c0.8,1.7,0.8,3.4,0.7,4.4C206,63.4,197.8,63.4,197.8,63.4z M202.3,61.2c0-0.6,0-2.7-2.1-2.7c-1.6,0-2.2,1.3-2.3,2.7H202.3z"/>
	<path d="M215.6,68.6c-0.1-0.7-0.1-1.3-0.1-1.7c-1.3,1.9-3,1.9-3.6,1.9c-1.8,0-2.5-0.5-3-1c-0.7-0.7-1.1-1.7-1.1-2.7
		s0.3-2.7,2.6-3.8c1.5-0.7,3.6-0.7,4.8-0.7c0-0.8,0-1.2-0.2-1.6c-0.3-0.9-1.2-1-1.6-1c-0.5,0-1,0.2-1.3,0.7
		c-0.3,0.4-0.3,0.8-0.3,1.1h-3.5c0-0.6,0.1-1.9,1.4-2.9c1.1-0.8,2.5-1,3.7-1c1,0,3.1,0.2,4.3,1.6c0.8,1,0.8,2.4,0.8,3l0,4.9
		c0,1,0.1,2.1,0.3,3.1L215.6,68.6L215.6,68.6z M211.2,64.9c0,0.8,0.6,1.7,1.7,1.7c0.6,0,1.2-0.3,1.5-0.7c0.6-0.8,0.7-1.7,0.7-3
		C212.9,62.7,211.2,63.4,211.2,64.9z"/>
	<path d="M221.7,59.5c0-0.6-0.1-2.3-0.2-3h3.3l0.1,2.3c0.5-1,1.2-2.5,4.1-2.4v3.2c-3.6-0.3-3.8,1.5-3.8,3v6h-3.6V59.5L221.7,59.5z"
		/>
	<path d="M230.1,58.6c0,0,0-1.4-0.1-2.2h3.4l0.1,1.8c0.3-0.6,1.3-2.1,3.9-2.1c2.4,0,3.4,1.4,3.7,2.3c0.3,0.7,0.3,1.4,0.3,3.6v6.6
		h-3.6v-7.5c0-0.5,0-0.9-0.2-1.3c-0.3-0.5-0.8-1-1.7-1c-0.8,0-1.5,0.4-1.8,0.9c-0.2,0.3-0.4,0.9-0.4,1.8v7.1h-3.6V58.6L230.1,58.6z"
		/>
	<path d="M244.6,51.3h3.8v3.1h-3.8V51.3z M244.7,56.5h3.6v12.1h-3.6V56.5z"/>
	<path d="M251.4,58.6c0,0,0-1.4-0.1-2.2h3.4l0.1,1.8c0.3-0.6,1.3-2.1,3.9-2.1c2.4,0,3.4,1.4,3.7,2.3c0.3,0.7,0.3,1.4,0.3,3.6v6.6
		h-3.6v-7.5c0-0.5,0-0.9-0.2-1.3c-0.3-0.5-0.8-1-1.7-1c-0.8,0-1.5,0.4-1.8,0.9c-0.2,0.3-0.4,0.9-0.4,1.8v7.1h-3.6V58.6L251.4,58.6z"
		/>
	<path d="M277.5,56.5c-0.1,1-0.2,1.8-0.2,3v9c0,4.5-3.7,4.9-6,4.9c-1.7,0-5.1-0.2-5.3-3.9h3.4c0,0.4,0.2,1.7,2.1,1.7
		c1.1,0,2-0.5,2.2-1.6c0.1-0.6,0.1-1,0.2-2.9c-1.1,1.5-2.4,1.7-3.3,1.7c-3.5,0-5.1-3-5.1-6c0-3.1,1.7-6,5.2-6c2.2,0,3,1.2,3.4,1.7
		l0.1-1.6L277.5,56.5L277.5,56.5z M271.4,65.9c2.5,0,2.5-2.9,2.5-3.5c0-1.4-0.3-3.7-2.4-3.7c-1.3,0-2.4,1-2.4,3.6
		C269.1,63,269.1,65.9,271.4,65.9z"/>
	<path d="M292.4,50.4c-0.8,2.4-2.1,6.3-2.1,10.6c0,3.2,0.7,5.6,2.1,10.5h-2.6c-1.4-3.3-2.4-6.8-2.4-10.4c0-3.7,1.1-7.3,2.4-10.7
		H292.4z"/>
	<path d="M296.1,54.4c1.6-0.7,3-1.5,4.4-2.5h3.1v16.8H300v-13c-0.7,0.5-2.1,1.4-3.9,2.1V54.4L296.1,54.4z"/>
	<path d="M312.5,51.6c2.4,0,3.7,1.3,4.4,2.2c0.9,1.3,1.5,2.9,1.5,6c0,3.9-0.9,9-5.9,9c-4.3,0-5.8-4.1-5.8-8.6
		C306.6,58,307.1,51.6,312.5,51.6L312.5,51.6z M314.3,56.3c-0.1-0.5-0.5-1.9-1.8-1.9c-1,0-1.5,0.9-1.7,1.4c-0.6,1.7-0.6,4.3-0.6,4.7
		c0,2.9,0.4,5.5,2.2,5.5c1.9,0,2.2-3.3,2.2-5.6C314.7,59.4,314.6,57.4,314.3,56.3L314.3,56.3z"/>
	<path d="M324.3,50.3c3.3,0,3.9,2.1,3.9,4.4c0,1.2,0,4.8-4.1,4.8c-2.8,0-3.8-2-3.8-4.6C320.3,53.7,320.3,50.3,324.3,50.3z
		 M324.2,57.5c0.8,0,1.4-0.5,1.4-2.8c0-1-0.1-2.5-1.3-2.5c-1.4,0-1.4,1.9-1.4,2.7C322.8,56.7,323.2,57.5,324.2,57.5z M335.1,50.1
		L326,68.9h-1.8l9.1-18.7H335.1z M335.3,59.6c3.3,0,3.9,2.1,3.9,4.4c0,1.2,0,4.8-4.1,4.8c-2.8,0-3.8-2-3.8-4.6
		C331.3,63,331.3,59.6,335.3,59.6z M335.2,66.9c0.8,0,1.4-0.5,1.4-2.8c0-1-0.1-2.5-1.3-2.5c-1.4,0-1.4,1.9-1.4,2.7
		C333.9,66,334.2,66.9,335.2,66.9z"/>
	<path d="M341.8,71.6c0.8-2.4,2.1-6.3,2.1-10.6c0-3.2-0.7-5.6-2.1-10.5h2.6c1.4,3.3,2.4,6.8,2.4,10.4c0,3.7-1.1,7.3-2.4,10.7
		C344.4,71.6,341.8,71.6,341.8,71.6z"/>
	<path d="M51.6,96.4c0,2-1.6,3.6-3.6,3.6c-2,0-3.6-1.6-3.6-3.6c0-2,1.6-3.6,3.6-3.6C49.9,92.8,51.6,94.4,51.6,96.4z"/>
	<path d="M64.3,89.2h4.8c1.8,0,3,0.1,3.9,1.2c0.7,0.7,1.1,1.7,1.1,2.8c0,1.1-0.4,2-1.1,2.8c-0.8,0.8-1.8,1.2-4.4,1.2h-2.3v6.4h-2
		V89.2z M66.3,95.5h2.4c1.3,0,3.3-0.1,3.3-2.5c0-2.3-1.9-2.3-2.9-2.3h-2.8C66.3,90.8,66.3,95.5,66.3,95.5z"/>
	<path d="M76.5,89.2h1.9v14.4h-1.9V89.2z"/>
	<path d="M88.2,103.6c-0.1-0.5-0.2-1-0.2-1.5c-0.9,1.7-2.3,1.8-3.1,1.8c-2.3,0-3.5-1.3-3.5-3c0-0.8,0.3-2.1,1.8-2.9
		c1.1-0.6,2.7-0.7,3.5-0.7c0.5,0,0.8,0,1.4,0.1c0-1.2,0-1.8-0.4-2.2c-0.4-0.5-1.2-0.7-1.7-0.7c-1.9,0-2,1.3-2,1.7H82
		c0.1-0.5,0.1-1.2,0.7-1.9c0.8-0.8,2.2-1.1,3.2-1.1c1.5,0,3,0.5,3.6,1.5c0.3,0.6,0.3,1.1,0.3,1.5l-0.1,4.8c0,0.2,0,1.5,0.2,2.5
		L88.2,103.6L88.2,103.6z M86.9,98.7c-0.8,0-3.6,0-3.6,2c0,0.6,0.4,1.7,2.1,1.7c1,0,1.7-0.4,2.1-1.1c0.4-0.7,0.4-1.2,0.5-2.6
		C87.6,98.7,87.3,98.7,86.9,98.7z"/>
	<path d="M97.7,103.7l-1.4,3.7h-1.9l1.5-3.8l-4.2-10h2.1l3.1,7.9l3.2-7.9h2L97.7,103.7z"/>
	<path d="M104.2,95.2c0-0.4,0-0.7-0.1-1.6h1.9l0,1.7c0.9-1.6,2.6-1.8,3.4-1.8c2.2,0,4.2,1.5,4.2,5.2c0,3.7-2.2,5.4-4.6,5.4
		c-1.5,0-2.5-0.6-3.1-1.5v5h-1.9C104.2,107.5,104.2,95.2,104.2,95.2z M108.9,102.6c0.5,0,1.5-0.1,2.1-1c0.7-1,0.8-2.4,0.8-3.1
		c0-1.8-0.5-3.7-2.8-3.7c-3,0-3,3.2-3,4.1C106,100.1,106.2,102.6,108.9,102.6z"/>
	<path d="M120.9,93.3c4,0,4.9,3.2,4.9,5.3c0,2.9-1.7,5.4-5.1,5.4c-3.3,0-4.9-2.3-4.9-5.2C115.8,96.2,116.9,93.3,120.9,93.3z
		 M120.8,102.5c1.4,0,3-1,3-4c0-2.5-1.2-3.8-2.9-3.8c-1.2,0-3.1,0.8-3.1,3.9C117.7,100.6,118.6,102.5,120.8,102.5L120.8,102.5z"/>
	<path d="M129.8,100.6c0,0.8,0.4,1.8,2.2,1.8c0.8,0,1.4-0.1,1.8-0.6c0.2-0.3,0.3-0.6,0.3-0.9c0-1-0.7-1.2-2.2-1.5
		c-2.1-0.5-3.9-0.9-3.9-3c0-1.8,1.6-3,3.9-3c1.3,0,3,0.4,3.6,1.6c0.3,0.6,0.3,1,0.3,1.5h-1.9c0.1-1.5-1.3-1.6-1.9-1.6
		c-0.3,0-2,0-2,1.4c0,0.9,0.9,1.1,1.4,1.3c2.8,0.7,3.4,0.8,4,1.4c0.6,0.5,0.8,1.2,0.8,1.9c0,1.1-0.6,2.1-1.4,2.5
		c-0.9,0.5-1.9,0.7-3,0.7c-2,0-3.9-0.8-3.9-3.3H129.8z"/>
	<path d="M138.6,89.2h2.3v2.1h-2.3V89.2z M138.8,93.6h1.9v10h-1.9V93.6z"/>
	<path d="M142.8,93.5h1.8v-2.1l1.9-0.6v2.7h2.2v1.4h-2.2v6c0,0.5,0,1.3,1.3,1.3c0.4,0,0.7-0.1,0.9-0.1v1.5c-0.3,0.1-0.9,0.1-1.6,0.1
		c-1.7,0-2.5-0.5-2.5-2.1v-6.7h-1.8V93.5L142.8,93.5z"/>
	<path d="M156.6,89.2h2v12.7h6.7v1.8h-8.7C156.6,103.6,156.6,89.2,156.6,89.2z"/>
	<path d="M168.6,98.9c0,2.1,0.8,3.6,2.9,3.6c1.2,0,2.2-0.6,2.4-2.1h1.9c-0.1,0.5-0.1,1.3-0.9,2.1c-0.4,0.5-1.4,1.3-3.5,1.3
		c-3.2,0-4.7-2-4.7-5.1c0-2,0.4-3.6,2-4.7c1-0.7,2.2-0.7,2.7-0.7c4.5,0,4.4,4,4.4,5.6L168.6,98.9L168.6,98.9z M173.9,97.6
		c0-1-0.2-3-2.5-3c-1.2,0-2.7,0.7-2.7,3H173.9z"/>
	<path d="M179.6,100.6c0,0.8,0.4,1.8,2.2,1.8c0.8,0,1.4-0.1,1.8-0.6c0.2-0.3,0.3-0.6,0.3-0.9c0-1-0.7-1.2-2.2-1.5
		c-2.1-0.5-3.9-0.9-3.9-3c0-1.8,1.6-3,3.9-3c1.3,0,3,0.4,3.6,1.6c0.3,0.6,0.3,1,0.3,1.5h-1.9c0.1-1.5-1.3-1.6-1.9-1.6
		c-0.3,0-2,0-2,1.4c0,0.9,0.9,1.1,1.4,1.3c2.8,0.7,3.4,0.8,4,1.4c0.6,0.5,0.8,1.2,0.8,1.9c0,1.1-0.6,2.1-1.4,2.5
		c-0.9,0.5-1.9,0.7-3,0.7c-2,0-3.9-0.8-3.9-3.3H179.6z"/>
	<path d="M189.6,100.6c0,0.8,0.4,1.8,2.2,1.8c0.8,0,1.4-0.1,1.8-0.6c0.2-0.3,0.3-0.6,0.3-0.9c0-1-0.7-1.2-2.2-1.5
		c-2.1-0.5-3.9-0.9-3.9-3c0-1.8,1.6-3,3.9-3c1.3,0,3,0.4,3.6,1.6c0.3,0.6,0.3,1,0.3,1.5h-1.9c0.1-1.5-1.3-1.6-1.9-1.6
		c-0.3,0-2,0-2,1.4c0,0.9,0.9,1.1,1.4,1.3c2.8,0.7,3.4,0.8,4,1.4c0.6,0.5,0.8,1.2,0.8,1.9c0,1.1-0.6,2.1-1.4,2.5
		c-0.9,0.5-1.9,0.7-3,0.7c-2,0-3.9-0.8-3.9-3.3H189.6z"/>
	<path d="M202.9,93.3c4,0,4.9,3.2,4.9,5.3c0,2.9-1.7,5.4-5.1,5.4c-3.3,0-4.9-2.3-4.9-5.2C197.8,96.2,199,93.3,202.9,93.3z
		 M202.8,102.5c1.4,0,3-1,3-4c0-2.5-1.2-3.8-2.9-3.8c-1.2,0-3.1,0.8-3.1,3.9C199.8,100.6,200.7,102.5,202.8,102.5z"/>
	<path d="M210.8,94.7l0-1.2h1.9l0,1.6c0.2-0.4,0.9-1.8,3.2-1.8c0.9,0,3.6,0.3,3.6,3.4v6.8h-1.9v-6.4c0-0.7-0.1-1.3-0.5-1.7
		c-0.5-0.5-1.1-0.7-1.8-0.7c-1.4,0-2.6,1-2.6,3v5.8h-1.9V94.7z"/>
	<path d="M224.1,100.6c0,0.8,0.4,1.8,2.2,1.8c0.8,0,1.4-0.1,1.8-0.6c0.2-0.3,0.3-0.6,0.3-0.9c0-1-0.7-1.2-2.2-1.5
		c-2.1-0.5-3.9-0.9-3.9-3c0-1.8,1.6-3,3.9-3c1.3,0,3,0.4,3.6,1.6c0.3,0.6,0.3,1,0.3,1.5h-1.9c0.1-1.5-1.3-1.6-1.9-1.6
		c-0.3,0-2,0-2,1.4c0,0.9,0.9,1.1,1.4,1.3c2.8,0.7,3.4,0.8,4,1.4c0.6,0.5,0.8,1.2,0.8,1.9c0,1.1-0.6,2.1-1.4,2.5
		c-0.9,0.5-1.9,0.7-3,0.7c-2,0-3.9-0.8-3.9-3.3H224.1z"/>
	<path d="M51.6,131.4c0,2-1.6,3.6-3.6,3.6c-2,0-3.6-1.6-3.6-3.6c0-2,1.6-3.6,3.6-3.6C49.9,127.8,51.6,129.4,51.6,131.4z"/>
	<path d="M65.7,134.4c0,1,0.2,2.9,3.5,2.9c3,0,3.4-1.9,3.4-2.6c0-1.6-1.3-1.9-3.3-2.4c-2.2-0.5-3.2-0.8-3.9-1.3
		c-1.2-0.8-1.5-1.9-1.5-2.8c0-2.9,2.8-4.2,5.5-4.2c1,0,2.9,0.2,4.1,1.4c0.8,0.9,0.8,1.9,0.9,2.5h-2.1c-0.1-1.8-1.6-2.2-3-2.2
		c-2,0-3.2,0.9-3.2,2.3c0,1.3,0.8,1.7,2.6,2.1c3.4,0.9,3.8,1,4.7,1.5c1.3,0.9,1.4,2.3,1.4,2.9c0,2.6-2,4.5-5.7,4.5
		c-1.1,0-3.3-0.2-4.5-1.6c-0.8-1.1-0.8-2.2-0.8-2.9L65.7,134.4L65.7,134.4z"/>
	<path d="M78.4,133.9c0,2.1,0.8,3.6,2.9,3.6c1.2,0,2.2-0.6,2.4-2.1h1.9c-0.1,0.5-0.1,1.3-0.9,2.1c-0.4,0.5-1.4,1.3-3.5,1.3
		c-3.2,0-4.7-2-4.7-5.1c0-2,0.4-3.6,2-4.7c1-0.7,2.2-0.7,2.7-0.7c4.5,0,4.4,4,4.4,5.6H78.4z M83.7,132.6c0-1-0.2-3-2.5-3
		c-1.2,0-2.7,0.7-2.7,3H83.7z"/>
	<path d="M88.4,124.2h1.9v14.4h-1.9V124.2z"/>
	<path d="M98.9,125.6c-0.3,0-0.7,0-1.1,0c-1.5,0-1.5,0.8-1.5,1.5v1.6h2.3v1.4h-2.3v8.7h-1.9v-8.7h-2v-1.4h2v-1.1
		c0-1.4,0.1-1.9,0.4-2.4c0.4-0.6,1.2-1.1,2.5-1.1c0.5,0,1.1,0.1,1.5,0.1V125.6z"/>
	<path d="M99.6,132.6h5v1.5h-5V132.6z"/>
	<path d="M112.9,131.8c0-0.5-0.2-2.1-2-2.1c-2.6,0-2.6,3-2.6,3.8c0,2.1,0.5,4,2.5,4c1.6,0,2.1-1.2,2.2-2.2h1.9
		c-0.1,2-1.6,3.6-4.1,3.6c-0.7,0-2.2-0.1-3.3-1.3c-0.6-0.7-1.2-1.8-1.2-3.8c0-4.2,2.6-5.4,4.6-5.4c0.7,0,2.2,0.1,3.1,1.2
		c0.7,0.9,0.8,1.7,0.8,2.2H112.9L112.9,131.8z"/>
	<path d="M116.2,124.2h1.9v5.9c0.6-1.1,1.9-1.7,3.3-1.7c1.1,0,2.6,0.4,3.2,1.6c0.2,0.4,0.3,0.9,0.3,2.3v6.3H123v-5.9
		c0-0.9,0-2.8-2.2-2.8c-1.4,0-2.1,0.9-2.4,1.3c-0.3,0.6-0.3,1.5-0.3,2.1v5.3h-1.9V124.2z"/>
	<path d="M129.6,133.9c0,2.1,0.8,3.6,2.9,3.6c1.2,0,2.2-0.6,2.4-2.1h1.9c-0.1,0.5-0.1,1.3-0.9,2.1c-0.4,0.5-1.4,1.3-3.5,1.3
		c-3.2,0-4.7-2-4.7-5.1c0-2,0.4-3.6,2-4.7c1-0.7,2.2-0.7,2.7-0.7c4.5,0,4.4,4,4.4,5.6H129.6z M134.9,132.6c0-1-0.2-3-2.5-3
		c-1.2,0-2.7,0.7-2.7,3H134.9z"/>
	<path d="M145.3,131.8c0-0.5-0.2-2.1-2-2.1c-2.6,0-2.6,3-2.6,3.8c0,2.1,0.5,4,2.5,4c1.6,0,2.1-1.2,2.2-2.2h1.9
		c-0.1,2-1.6,3.6-4.1,3.6c-0.7,0-2.2-0.1-3.3-1.3c-0.6-0.7-1.2-1.8-1.2-3.8c0-4.2,2.6-5.4,4.6-5.4c0.7,0,2.2,0.1,3.1,1.2
		c0.7,0.9,0.8,1.7,0.8,2.2H145.3z"/>
	<path d="M148.4,124.1h1.9v8.6l3.8-4.1h2.5l-4.2,4.3l4.5,5.8h-2.5l-4-5.4v5.4h-1.9C148.4,138.6,148.4,124.1,148.4,124.1z"/>
	<path d="M159.6,135.6c0,0.8,0.4,1.8,2.2,1.8c0.8,0,1.4-0.1,1.8-0.6c0.2-0.3,0.3-0.6,0.3-0.9c0-1-0.7-1.2-2.2-1.5
		c-2.1-0.5-3.9-0.9-3.9-3c0-1.8,1.6-3,3.9-3c1.3,0,3,0.4,3.6,1.6c0.3,0.6,0.3,1,0.3,1.5h-1.9c0.1-1.5-1.3-1.6-1.9-1.6
		c-0.3,0-2,0-2,1.4c0,0.9,0.9,1.1,1.4,1.3c2.8,0.7,3.4,0.8,4,1.4c0.6,0.5,0.8,1.2,0.8,1.9c0,1.1-0.6,2.1-1.4,2.5
		c-0.9,0.5-1.9,0.7-3,0.7c-2,0-3.9-0.8-3.9-3.3H159.6z"/>
</g>
</svg>
